<mxfile host="Electron" modified="2024-02-06T10:49:30.282Z" agent="Mozilla/5.0 (Windows NT 10.0; Win64; x64) AppleWebKit/537.36 (KHTML, like Gecko) draw.io/23.0.2 Chrome/120.0.6099.109 Electron/28.1.0 Safari/537.36" etag="qpbH8k9L-P-cBkIF_ZZL" version="23.0.2" type="device" pages="7">
  <diagram name="index" id="lceUJjZTwuvaRAbYSiEP">
    <mxGraphModel dx="1434" dy="836" grid="1" gridSize="10" guides="1" tooltips="1" connect="1" arrows="1" fold="1" page="1" pageScale="1" pageWidth="850" pageHeight="200" math="0" shadow="0">
      <root>
        <mxCell id="0" />
        <mxCell id="1" parent="0" />
        <mxCell id="dPcStUMOsakTPGtHqcJx-64" value="" style="rounded=0;whiteSpace=wrap;html=1;" vertex="1" parent="1">
          <mxGeometry y="1169" width="820" height="181" as="geometry" />
        </mxCell>
        <mxCell id="vFZ7IcqHHJFBFfiFuaE2-21" value="" style="rounded=0;whiteSpace=wrap;html=1;" vertex="1" parent="1">
          <mxGeometry x="690" y="20" width="60" height="40" as="geometry" />
        </mxCell>
        <mxCell id="vFZ7IcqHHJFBFfiFuaE2-22" value="" style="rounded=0;whiteSpace=wrap;html=1;" vertex="1" parent="1">
          <mxGeometry x="620" y="20" width="60" height="40" as="geometry" />
        </mxCell>
        <mxCell id="vFZ7IcqHHJFBFfiFuaE2-20" value="" style="rounded=0;whiteSpace=wrap;html=1;" vertex="1" parent="1">
          <mxGeometry x="550" y="20" width="60" height="40" as="geometry" />
        </mxCell>
        <mxCell id="vFZ7IcqHHJFBFfiFuaE2-23" value="" style="rounded=0;whiteSpace=wrap;html=1;" vertex="1" parent="1">
          <mxGeometry x="480" y="20" width="60" height="40" as="geometry" />
        </mxCell>
        <mxCell id="vFZ7IcqHHJFBFfiFuaE2-24" value="" style="rounded=0;whiteSpace=wrap;html=1;" vertex="1" parent="1">
          <mxGeometry x="410" y="20" width="60" height="40" as="geometry" />
        </mxCell>
        <mxCell id="vFZ7IcqHHJFBFfiFuaE2-25" value="" style="rounded=0;whiteSpace=wrap;html=1;" vertex="1" parent="1">
          <mxGeometry x="340" y="20" width="60" height="40" as="geometry" />
        </mxCell>
        <mxCell id="vFZ7IcqHHJFBFfiFuaE2-18" value="" style="rounded=0;whiteSpace=wrap;html=1;" vertex="1" parent="1">
          <mxGeometry x="270" y="20" width="60" height="40" as="geometry" />
        </mxCell>
        <mxCell id="vFZ7IcqHHJFBFfiFuaE2-8" value="courses" style="text;html=1;strokeColor=none;fillColor=none;align=center;verticalAlign=middle;whiteSpace=wrap;rounded=0;" vertex="1" parent="1">
          <mxGeometry x="340" y="25" width="60" height="30" as="geometry" />
        </mxCell>
        <mxCell id="vFZ7IcqHHJFBFfiFuaE2-9" value="contact" style="text;html=1;strokeColor=none;fillColor=none;align=center;verticalAlign=middle;whiteSpace=wrap;rounded=0;" vertex="1" parent="1">
          <mxGeometry x="690" y="25" width="60" height="30" as="geometry" />
        </mxCell>
        <mxCell id="vFZ7IcqHHJFBFfiFuaE2-10" value="blog" style="text;html=1;strokeColor=none;fillColor=none;align=center;verticalAlign=middle;whiteSpace=wrap;rounded=0;" vertex="1" parent="1">
          <mxGeometry x="620" y="25" width="60" height="30" as="geometry" />
        </mxCell>
        <mxCell id="vFZ7IcqHHJFBFfiFuaE2-11" value="home" style="text;html=1;strokeColor=none;fillColor=none;align=center;verticalAlign=middle;whiteSpace=wrap;rounded=0;" vertex="1" parent="1">
          <mxGeometry x="270" y="25" width="60" height="30" as="geometry" />
        </mxCell>
        <mxCell id="vFZ7IcqHHJFBFfiFuaE2-12" value="pricing" style="text;html=1;strokeColor=none;fillColor=none;align=center;verticalAlign=middle;whiteSpace=wrap;rounded=0;" vertex="1" parent="1">
          <mxGeometry x="550" y="25" width="60" height="30" as="geometry" />
        </mxCell>
        <mxCell id="vFZ7IcqHHJFBFfiFuaE2-13" value="about" style="text;html=1;strokeColor=none;fillColor=none;align=center;verticalAlign=middle;whiteSpace=wrap;rounded=0;" vertex="1" parent="1">
          <mxGeometry x="480" y="25" width="60" height="30" as="geometry" />
        </mxCell>
        <mxCell id="vFZ7IcqHHJFBFfiFuaE2-14" value="teacher" style="text;html=1;strokeColor=none;fillColor=none;align=center;verticalAlign=middle;whiteSpace=wrap;rounded=0;" vertex="1" parent="1">
          <mxGeometry x="410" y="25" width="60" height="30" as="geometry" />
        </mxCell>
        <mxCell id="vFZ7IcqHHJFBFfiFuaE2-16" value="" style="endArrow=none;html=1;rounded=0;" edge="1" parent="1">
          <mxGeometry width="50" height="50" relative="1" as="geometry">
            <mxPoint x="4" y="19.5" as="sourcePoint" />
            <mxPoint x="824" y="19.5" as="targetPoint" />
          </mxGeometry>
        </mxCell>
        <mxCell id="vFZ7IcqHHJFBFfiFuaE2-17" value="logo" style="rounded=0;whiteSpace=wrap;html=1;" vertex="1" parent="1">
          <mxGeometry x="70" y="20" width="120" height="40" as="geometry" />
        </mxCell>
        <mxCell id="vFZ7IcqHHJFBFfiFuaE2-27" value="email" style="rounded=0;whiteSpace=wrap;html=1;" vertex="1" parent="1">
          <mxGeometry x="90" width="110" height="20" as="geometry" />
        </mxCell>
        <mxCell id="vFZ7IcqHHJFBFfiFuaE2-29" value="phone" style="rounded=0;whiteSpace=wrap;html=1;" vertex="1" parent="1">
          <mxGeometry x="630" width="110" height="20" as="geometry" />
        </mxCell>
        <mxCell id="vFZ7IcqHHJFBFfiFuaE2-31" value="&lt;font style=&quot;font-size: 72px;&quot;&gt;welcome&lt;/font&gt;" style="rounded=0;whiteSpace=wrap;html=1;" vertex="1" parent="1">
          <mxGeometry y="60" width="820" height="200" as="geometry" />
        </mxCell>
        <mxCell id="gSyKwtN2PCuTtas58rr2-6" value="&#xa;&lt;h2 style=&quot;box-sizing: border-box; font-family: &amp;quot;Roboto Slab&amp;quot;, serif; font-weight: 400; line-height: 1.5; color: rgb(0, 0, 0); margin: 0px 0px 20px; font-size: 24px; text-transform: uppercase; position: relative; font-style: normal; font-variant-ligatures: normal; font-variant-caps: normal; letter-spacing: normal; orphans: 2; text-align: center; text-indent: 0px; widows: 2; word-spacing: 0px; -webkit-text-stroke-width: 0px; background-color: rgb(232, 232, 232); text-decoration-thickness: initial; text-decoration-style: initial; text-decoration-color: initial;&quot;&gt;PLAN &amp;amp; PRICING&lt;/h2&gt;&#xa;&#xa;" style="text;html=1;strokeColor=none;fillColor=none;align=center;verticalAlign=middle;whiteSpace=wrap;rounded=0;" vertex="1" parent="1">
          <mxGeometry x="292" y="1800" width="226" height="30" as="geometry" />
        </mxCell>
        <mxCell id="gSyKwtN2PCuTtas58rr2-7" value="List" style="swimlane;fontStyle=0;childLayout=stackLayout;horizontal=1;startSize=30;horizontalStack=0;resizeParent=1;resizeParentMax=0;resizeLast=0;collapsible=1;marginBottom=0;whiteSpace=wrap;html=1;" vertex="1" parent="1">
          <mxGeometry x="74" y="1840" width="140" height="120" as="geometry" />
        </mxCell>
        <mxCell id="gSyKwtN2PCuTtas58rr2-8" value="Item 1" style="text;strokeColor=none;fillColor=none;align=left;verticalAlign=middle;spacingLeft=4;spacingRight=4;overflow=hidden;points=[[0,0.5],[1,0.5]];portConstraint=eastwest;rotatable=0;whiteSpace=wrap;html=1;" vertex="1" parent="gSyKwtN2PCuTtas58rr2-7">
          <mxGeometry y="30" width="140" height="30" as="geometry" />
        </mxCell>
        <mxCell id="gSyKwtN2PCuTtas58rr2-9" value="Item 2" style="text;strokeColor=none;fillColor=none;align=left;verticalAlign=middle;spacingLeft=4;spacingRight=4;overflow=hidden;points=[[0,0.5],[1,0.5]];portConstraint=eastwest;rotatable=0;whiteSpace=wrap;html=1;" vertex="1" parent="gSyKwtN2PCuTtas58rr2-7">
          <mxGeometry y="60" width="140" height="30" as="geometry" />
        </mxCell>
        <mxCell id="gSyKwtN2PCuTtas58rr2-10" value="Item 3" style="text;strokeColor=none;fillColor=none;align=left;verticalAlign=middle;spacingLeft=4;spacingRight=4;overflow=hidden;points=[[0,0.5],[1,0.5]];portConstraint=eastwest;rotatable=0;whiteSpace=wrap;html=1;" vertex="1" parent="gSyKwtN2PCuTtas58rr2-7">
          <mxGeometry y="90" width="140" height="30" as="geometry" />
        </mxCell>
        <mxCell id="gSyKwtN2PCuTtas58rr2-11" value="List" style="swimlane;fontStyle=0;childLayout=stackLayout;horizontal=1;startSize=30;horizontalStack=0;resizeParent=1;resizeParentMax=0;resizeLast=0;collapsible=1;marginBottom=0;whiteSpace=wrap;html=1;" vertex="1" parent="1">
          <mxGeometry x="324" y="1840" width="140" height="120" as="geometry" />
        </mxCell>
        <mxCell id="gSyKwtN2PCuTtas58rr2-12" value="Item 1" style="text;strokeColor=none;fillColor=none;align=left;verticalAlign=middle;spacingLeft=4;spacingRight=4;overflow=hidden;points=[[0,0.5],[1,0.5]];portConstraint=eastwest;rotatable=0;whiteSpace=wrap;html=1;" vertex="1" parent="gSyKwtN2PCuTtas58rr2-11">
          <mxGeometry y="30" width="140" height="30" as="geometry" />
        </mxCell>
        <mxCell id="gSyKwtN2PCuTtas58rr2-13" value="Item 2" style="text;strokeColor=none;fillColor=none;align=left;verticalAlign=middle;spacingLeft=4;spacingRight=4;overflow=hidden;points=[[0,0.5],[1,0.5]];portConstraint=eastwest;rotatable=0;whiteSpace=wrap;html=1;" vertex="1" parent="gSyKwtN2PCuTtas58rr2-11">
          <mxGeometry y="60" width="140" height="30" as="geometry" />
        </mxCell>
        <mxCell id="gSyKwtN2PCuTtas58rr2-14" value="Item 3" style="text;strokeColor=none;fillColor=none;align=left;verticalAlign=middle;spacingLeft=4;spacingRight=4;overflow=hidden;points=[[0,0.5],[1,0.5]];portConstraint=eastwest;rotatable=0;whiteSpace=wrap;html=1;" vertex="1" parent="gSyKwtN2PCuTtas58rr2-11">
          <mxGeometry y="90" width="140" height="30" as="geometry" />
        </mxCell>
        <mxCell id="gSyKwtN2PCuTtas58rr2-15" value="List" style="swimlane;fontStyle=0;childLayout=stackLayout;horizontal=1;startSize=30;horizontalStack=0;resizeParent=1;resizeParentMax=0;resizeLast=0;collapsible=1;marginBottom=0;whiteSpace=wrap;html=1;" vertex="1" parent="1">
          <mxGeometry x="554" y="1840" width="140" height="120" as="geometry" />
        </mxCell>
        <mxCell id="gSyKwtN2PCuTtas58rr2-16" value="Item 1" style="text;strokeColor=none;fillColor=none;align=left;verticalAlign=middle;spacingLeft=4;spacingRight=4;overflow=hidden;points=[[0,0.5],[1,0.5]];portConstraint=eastwest;rotatable=0;whiteSpace=wrap;html=1;" vertex="1" parent="gSyKwtN2PCuTtas58rr2-15">
          <mxGeometry y="30" width="140" height="30" as="geometry" />
        </mxCell>
        <mxCell id="gSyKwtN2PCuTtas58rr2-17" value="Item 2" style="text;strokeColor=none;fillColor=none;align=left;verticalAlign=middle;spacingLeft=4;spacingRight=4;overflow=hidden;points=[[0,0.5],[1,0.5]];portConstraint=eastwest;rotatable=0;whiteSpace=wrap;html=1;" vertex="1" parent="gSyKwtN2PCuTtas58rr2-15">
          <mxGeometry y="60" width="140" height="30" as="geometry" />
        </mxCell>
        <mxCell id="gSyKwtN2PCuTtas58rr2-18" value="Item 3" style="text;strokeColor=none;fillColor=none;align=left;verticalAlign=middle;spacingLeft=4;spacingRight=4;overflow=hidden;points=[[0,0.5],[1,0.5]];portConstraint=eastwest;rotatable=0;whiteSpace=wrap;html=1;" vertex="1" parent="gSyKwtN2PCuTtas58rr2-15">
          <mxGeometry y="90" width="140" height="30" as="geometry" />
        </mxCell>
        <mxCell id="gSyKwtN2PCuTtas58rr2-19" value="&lt;font style=&quot;font-size: 72px;&quot;&gt;Discount countdown&lt;/font&gt;" style="rounded=0;whiteSpace=wrap;html=1;" vertex="1" parent="1">
          <mxGeometry x="4" y="1980" width="820" height="195" as="geometry" />
        </mxCell>
        <mxCell id="dPcStUMOsakTPGtHqcJx-5" value="&lt;h2 style=&quot;box-sizing: border-box; font-family: &amp;quot;Source Sans Pro&amp;quot;, Arial, sans-serif; font-weight: 700; line-height: 1.1; color: rgb(0, 0, 0); margin: 0px 0px 2.5em; font-size: 14px; text-transform: uppercase; letter-spacing: 2px; font-style: normal; font-variant-ligatures: normal; font-variant-caps: normal; orphans: 2; text-align: center; text-indent: 0px; widows: 2; word-spacing: 0px; -webkit-text-stroke-width: 0px; background-color: rgb(232, 232, 232); text-decoration-thickness: initial; text-decoration-style: initial; text-decoration-color: initial;&quot;&gt;&lt;span style=&quot;box-sizing: border-box; border: 2px solid rgba(0, 0, 0, 0.8); padding: 10px 15px; position: relative;&quot;&gt;INSTAGRAM GALLERY&lt;/span&gt;&lt;/h2&gt;" style="text;whiteSpace=wrap;html=1;" vertex="1" parent="1">
          <mxGeometry x="274" y="2190" width="260" height="70" as="geometry" />
        </mxCell>
        <mxCell id="dPcStUMOsakTPGtHqcJx-6" value="" style="rounded=1;whiteSpace=wrap;html=1;" vertex="1" parent="1">
          <mxGeometry x="4" y="2225" width="156" height="115" as="geometry" />
        </mxCell>
        <mxCell id="dPcStUMOsakTPGtHqcJx-7" value="" style="rounded=1;whiteSpace=wrap;html=1;" vertex="1" parent="1">
          <mxGeometry x="194" y="2230" width="170" height="110" as="geometry" />
        </mxCell>
        <mxCell id="dPcStUMOsakTPGtHqcJx-8" value="" style="rounded=1;whiteSpace=wrap;html=1;" vertex="1" parent="1">
          <mxGeometry x="414" y="2230" width="160" height="110" as="geometry" />
        </mxCell>
        <mxCell id="dPcStUMOsakTPGtHqcJx-9" value="" style="rounded=1;whiteSpace=wrap;html=1;" vertex="1" parent="1">
          <mxGeometry x="634" y="2230" width="160" height="110" as="geometry" />
        </mxCell>
        <mxCell id="dPcStUMOsakTPGtHqcJx-12" value="Title" style="text;strokeColor=none;fillColor=none;html=1;fontSize=24;fontStyle=1;verticalAlign=middle;align=center;" vertex="1" parent="1">
          <mxGeometry x="154" y="2370" width="100" height="40" as="geometry" />
        </mxCell>
        <mxCell id="dPcStUMOsakTPGtHqcJx-13" value="Title" style="text;strokeColor=none;fillColor=none;html=1;fontSize=24;fontStyle=1;verticalAlign=middle;align=center;" vertex="1" parent="1">
          <mxGeometry x="634" y="2370" width="100" height="40" as="geometry" />
        </mxCell>
        <mxCell id="dPcStUMOsakTPGtHqcJx-14" value="Title" style="text;strokeColor=none;fillColor=none;html=1;fontSize=24;fontStyle=1;verticalAlign=middle;align=center;" vertex="1" parent="1">
          <mxGeometry x="464" y="2370" width="100" height="40" as="geometry" />
        </mxCell>
        <mxCell id="dPcStUMOsakTPGtHqcJx-15" value="Title" style="text;strokeColor=none;fillColor=none;html=1;fontSize=24;fontStyle=1;verticalAlign=middle;align=center;" vertex="1" parent="1">
          <mxGeometry x="314" y="2370" width="100" height="40" as="geometry" />
        </mxCell>
        <mxCell id="dPcStUMOsakTPGtHqcJx-17" value="about" style="text;strokeColor=none;fillColor=none;html=1;fontSize=24;fontStyle=1;verticalAlign=middle;align=center;" vertex="1" parent="1">
          <mxGeometry x="4" y="2410" width="100" height="40" as="geometry" />
        </mxCell>
        <mxCell id="dPcStUMOsakTPGtHqcJx-18" value="&lt;ul&gt;&lt;li&gt;Value 1&lt;/li&gt;&lt;li&gt;Value 2&lt;/li&gt;&lt;li&gt;Value 3&lt;/li&gt;&lt;/ul&gt;" style="text;strokeColor=none;fillColor=none;html=1;whiteSpace=wrap;verticalAlign=middle;overflow=hidden;" vertex="1" parent="1">
          <mxGeometry x="154" y="2400" width="100" height="80" as="geometry" />
        </mxCell>
        <mxCell id="dPcStUMOsakTPGtHqcJx-19" value="&lt;ul&gt;&lt;li&gt;Value 1&lt;/li&gt;&lt;li&gt;Value 2&lt;/li&gt;&lt;li&gt;Value 3&lt;/li&gt;&lt;/ul&gt;" style="text;strokeColor=none;fillColor=none;html=1;whiteSpace=wrap;verticalAlign=middle;overflow=hidden;" vertex="1" parent="1">
          <mxGeometry x="314" y="2400" width="100" height="80" as="geometry" />
        </mxCell>
        <mxCell id="dPcStUMOsakTPGtHqcJx-20" value="&lt;ul&gt;&lt;li&gt;Value 1&lt;/li&gt;&lt;li&gt;Value 2&lt;/li&gt;&lt;li&gt;Value 3&lt;/li&gt;&lt;/ul&gt;" style="text;strokeColor=none;fillColor=none;html=1;whiteSpace=wrap;verticalAlign=middle;overflow=hidden;" vertex="1" parent="1">
          <mxGeometry x="464" y="2400" width="100" height="80" as="geometry" />
        </mxCell>
        <mxCell id="dPcStUMOsakTPGtHqcJx-22" value="&lt;ul&gt;&lt;li&gt;Value 1&lt;/li&gt;&lt;li&gt;Value 2&lt;/li&gt;&lt;li&gt;Value 3&lt;/li&gt;&lt;/ul&gt;" style="text;strokeColor=none;fillColor=none;html=1;whiteSpace=wrap;verticalAlign=middle;overflow=hidden;" vertex="1" parent="1">
          <mxGeometry x="634" y="2400" width="100" height="80" as="geometry" />
        </mxCell>
        <mxCell id="dPcStUMOsakTPGtHqcJx-23" value="&lt;h2 style=&quot;box-sizing: border-box; font-family: &amp;quot;Roboto Slab&amp;quot;, serif; font-weight: 400; line-height: 1.5; color: rgb(0, 0, 0); margin: 0px 0px 20px; font-size: 24px; text-transform: uppercase; position: relative; font-style: normal; font-variant-ligatures: normal; font-variant-caps: normal; letter-spacing: normal; orphans: 2; text-align: center; text-indent: 0px; widows: 2; word-spacing: 0px; -webkit-text-stroke-width: 0px; background-color: rgb(255, 255, 255); text-decoration-thickness: initial; text-decoration-style: initial; text-decoration-color: initial;&quot;&gt;COURSE CATEGORIES&lt;/h2&gt;" style="text;whiteSpace=wrap;html=1;" vertex="1" parent="1">
          <mxGeometry x="280" y="270" width="240" height="80" as="geometry" />
        </mxCell>
        <mxCell id="dPcStUMOsakTPGtHqcJx-26" value="item" style="ellipse;whiteSpace=wrap;html=1;aspect=fixed;" vertex="1" parent="1">
          <mxGeometry x="635" y="445" width="50" height="50" as="geometry" />
        </mxCell>
        <mxCell id="dPcStUMOsakTPGtHqcJx-27" value="item" style="ellipse;whiteSpace=wrap;html=1;aspect=fixed;" vertex="1" parent="1">
          <mxGeometry x="465" y="445" width="50" height="50" as="geometry" />
        </mxCell>
        <mxCell id="dPcStUMOsakTPGtHqcJx-28" value="item" style="ellipse;whiteSpace=wrap;html=1;aspect=fixed;" vertex="1" parent="1">
          <mxGeometry x="295" y="445" width="50" height="50" as="geometry" />
        </mxCell>
        <mxCell id="dPcStUMOsakTPGtHqcJx-29" value="item" style="ellipse;whiteSpace=wrap;html=1;aspect=fixed;" vertex="1" parent="1">
          <mxGeometry x="135" y="445" width="50" height="50" as="geometry" />
        </mxCell>
        <mxCell id="dPcStUMOsakTPGtHqcJx-30" value="item" style="ellipse;whiteSpace=wrap;html=1;aspect=fixed;" vertex="1" parent="1">
          <mxGeometry x="635" y="330" width="50" height="50" as="geometry" />
        </mxCell>
        <mxCell id="dPcStUMOsakTPGtHqcJx-31" value="item" style="ellipse;whiteSpace=wrap;html=1;aspect=fixed;" vertex="1" parent="1">
          <mxGeometry x="465" y="330" width="50" height="50" as="geometry" />
        </mxCell>
        <mxCell id="dPcStUMOsakTPGtHqcJx-32" value="item" style="ellipse;whiteSpace=wrap;html=1;aspect=fixed;" vertex="1" parent="1">
          <mxGeometry x="295" y="330" width="50" height="50" as="geometry" />
        </mxCell>
        <mxCell id="dPcStUMOsakTPGtHqcJx-33" value="item" style="ellipse;whiteSpace=wrap;html=1;aspect=fixed;" vertex="1" parent="1">
          <mxGeometry x="135" y="330" width="50" height="50" as="geometry" />
        </mxCell>
        <mxCell id="dPcStUMOsakTPGtHqcJx-35" value="&lt;h1&gt;title&lt;/h1&gt;&lt;div&gt;content&lt;/div&gt;" style="text;html=1;strokeColor=none;fillColor=none;spacing=5;spacingTop=-20;whiteSpace=wrap;overflow=hidden;rounded=0;" vertex="1" parent="1">
          <mxGeometry x="135" y="375" width="90" height="70" as="geometry" />
        </mxCell>
        <mxCell id="dPcStUMOsakTPGtHqcJx-37" value="&lt;h1&gt;title&lt;/h1&gt;&lt;div&gt;content&lt;/div&gt;" style="text;html=1;strokeColor=none;fillColor=none;spacing=5;spacingTop=-20;whiteSpace=wrap;overflow=hidden;rounded=0;" vertex="1" parent="1">
          <mxGeometry x="295" y="380" width="90" height="70" as="geometry" />
        </mxCell>
        <mxCell id="dPcStUMOsakTPGtHqcJx-38" value="&lt;h1&gt;title&lt;/h1&gt;&lt;div&gt;content&lt;/div&gt;" style="text;html=1;strokeColor=none;fillColor=none;spacing=5;spacingTop=-20;whiteSpace=wrap;overflow=hidden;rounded=0;" vertex="1" parent="1">
          <mxGeometry x="635" y="375" width="90" height="70" as="geometry" />
        </mxCell>
        <mxCell id="dPcStUMOsakTPGtHqcJx-39" value="&lt;h1&gt;title&lt;/h1&gt;&lt;div&gt;content&lt;/div&gt;" style="text;html=1;strokeColor=none;fillColor=none;spacing=5;spacingTop=-20;whiteSpace=wrap;overflow=hidden;rounded=0;" vertex="1" parent="1">
          <mxGeometry x="465" y="380" width="90" height="70" as="geometry" />
        </mxCell>
        <mxCell id="dPcStUMOsakTPGtHqcJx-40" value="&lt;h1&gt;title&lt;/h1&gt;&lt;div&gt;content&lt;/div&gt;" style="text;html=1;strokeColor=none;fillColor=none;spacing=5;spacingTop=-20;whiteSpace=wrap;overflow=hidden;rounded=0;" vertex="1" parent="1">
          <mxGeometry x="135" y="495" width="90" height="70" as="geometry" />
        </mxCell>
        <mxCell id="dPcStUMOsakTPGtHqcJx-41" value="&lt;h1&gt;title&lt;/h1&gt;&lt;div&gt;content&lt;/div&gt;" style="text;html=1;strokeColor=none;fillColor=none;spacing=5;spacingTop=-20;whiteSpace=wrap;overflow=hidden;rounded=0;" vertex="1" parent="1">
          <mxGeometry x="297" y="495" width="90" height="70" as="geometry" />
        </mxCell>
        <mxCell id="dPcStUMOsakTPGtHqcJx-42" value="&lt;h1&gt;title&lt;/h1&gt;&lt;div&gt;content&lt;/div&gt;" style="text;html=1;strokeColor=none;fillColor=none;spacing=5;spacingTop=-20;whiteSpace=wrap;overflow=hidden;rounded=0;" vertex="1" parent="1">
          <mxGeometry x="635" y="495" width="90" height="70" as="geometry" />
        </mxCell>
        <mxCell id="dPcStUMOsakTPGtHqcJx-43" value="&lt;h1&gt;title&lt;/h1&gt;&lt;div&gt;content&lt;/div&gt;" style="text;html=1;strokeColor=none;fillColor=none;spacing=5;spacingTop=-20;whiteSpace=wrap;overflow=hidden;rounded=0;" vertex="1" parent="1">
          <mxGeometry x="465" y="495" width="90" height="70" as="geometry" />
        </mxCell>
        <mxCell id="dPcStUMOsakTPGtHqcJx-44" value="&lt;font style=&quot;font-size: 72px;&quot;&gt;data&lt;/font&gt;" style="rounded=0;whiteSpace=wrap;html=1;" vertex="1" parent="1">
          <mxGeometry x="4" y="560" width="816" height="140" as="geometry" />
        </mxCell>
        <mxCell id="dPcStUMOsakTPGtHqcJx-45" value="&lt;h2 style=&quot;box-sizing: border-box; font-family: &amp;quot;Roboto Slab&amp;quot;, serif; font-weight: 400; line-height: 1.5; color: rgb(0, 0, 0); margin: 0px 0px 20px; font-size: 24px; text-transform: uppercase; position: relative; font-style: normal; font-variant-ligatures: normal; font-variant-caps: normal; letter-spacing: normal; orphans: 2; text-align: center; text-indent: 0px; widows: 2; word-spacing: 0px; -webkit-text-stroke-width: 0px; background-color: rgb(255, 255, 255); text-decoration-thickness: initial; text-decoration-style: initial; text-decoration-color: initial;&quot;&gt;OUR COURSE&lt;/h2&gt;" style="text;whiteSpace=wrap;html=1;" vertex="1" parent="1">
          <mxGeometry x="339" y="700" width="150" height="80" as="geometry" />
        </mxCell>
        <mxCell id="dPcStUMOsakTPGtHqcJx-47" value="" style="rounded=0;whiteSpace=wrap;html=1;" vertex="1" parent="1">
          <mxGeometry x="22" y="770" width="348" height="180" as="geometry" />
        </mxCell>
        <mxCell id="dPcStUMOsakTPGtHqcJx-48" value="" style="rounded=0;whiteSpace=wrap;html=1;" vertex="1" parent="1">
          <mxGeometry x="445" y="770" width="365" height="180" as="geometry" />
        </mxCell>
        <mxCell id="dPcStUMOsakTPGtHqcJx-49" value="" style="rounded=0;whiteSpace=wrap;html=1;" vertex="1" parent="1">
          <mxGeometry x="445" y="970" width="365" height="180" as="geometry" />
        </mxCell>
        <mxCell id="dPcStUMOsakTPGtHqcJx-50" value="" style="rounded=0;whiteSpace=wrap;html=1;" vertex="1" parent="1">
          <mxGeometry x="22" y="970" width="350" height="180" as="geometry" />
        </mxCell>
        <mxCell id="dPcStUMOsakTPGtHqcJx-51" value="" style="endArrow=none;html=1;rounded=0;exitX=0.5;exitY=0;exitDx=0;exitDy=0;entryX=0.5;entryY=1;entryDx=0;entryDy=0;" edge="1" parent="1" source="dPcStUMOsakTPGtHqcJx-47" target="dPcStUMOsakTPGtHqcJx-47">
          <mxGeometry width="50" height="50" relative="1" as="geometry">
            <mxPoint x="230" y="830" as="sourcePoint" />
            <mxPoint x="155" y="830" as="targetPoint" />
          </mxGeometry>
        </mxCell>
        <mxCell id="dPcStUMOsakTPGtHqcJx-52" value="" style="endArrow=none;html=1;rounded=0;exitX=0.5;exitY=1;exitDx=0;exitDy=0;entryX=0.5;entryY=0;entryDx=0;entryDy=0;" edge="1" parent="1" source="dPcStUMOsakTPGtHqcJx-49" target="dPcStUMOsakTPGtHqcJx-49">
          <mxGeometry width="50" height="50" relative="1" as="geometry">
            <mxPoint x="560" y="790" as="sourcePoint" />
            <mxPoint x="610" y="740" as="targetPoint" />
          </mxGeometry>
        </mxCell>
        <mxCell id="dPcStUMOsakTPGtHqcJx-53" value="" style="endArrow=none;html=1;rounded=0;exitX=0.5;exitY=1;exitDx=0;exitDy=0;entryX=0.5;entryY=0;entryDx=0;entryDy=0;" edge="1" parent="1" source="dPcStUMOsakTPGtHqcJx-48" target="dPcStUMOsakTPGtHqcJx-48">
          <mxGeometry width="50" height="50" relative="1" as="geometry">
            <mxPoint x="560" y="790" as="sourcePoint" />
            <mxPoint x="610" y="740" as="targetPoint" />
          </mxGeometry>
        </mxCell>
        <mxCell id="dPcStUMOsakTPGtHqcJx-54" value="" style="endArrow=none;html=1;rounded=0;exitX=0.5;exitY=1;exitDx=0;exitDy=0;entryX=0.5;entryY=0;entryDx=0;entryDy=0;" edge="1" parent="1" source="dPcStUMOsakTPGtHqcJx-50" target="dPcStUMOsakTPGtHqcJx-50">
          <mxGeometry width="50" height="50" relative="1" as="geometry">
            <mxPoint x="560" y="790" as="sourcePoint" />
            <mxPoint x="610" y="740" as="targetPoint" />
          </mxGeometry>
        </mxCell>
        <mxCell id="dPcStUMOsakTPGtHqcJx-55" value="&lt;font style=&quot;font-size: 24px;&quot;&gt;img&lt;/font&gt;" style="text;html=1;strokeColor=none;fillColor=none;align=center;verticalAlign=middle;whiteSpace=wrap;rounded=0;" vertex="1" parent="1">
          <mxGeometry x="70" y="850" width="60" height="30" as="geometry" />
        </mxCell>
        <mxCell id="dPcStUMOsakTPGtHqcJx-56" value="&lt;font style=&quot;font-size: 24px;&quot;&gt;img&lt;/font&gt;" style="text;html=1;strokeColor=none;fillColor=none;align=center;verticalAlign=middle;whiteSpace=wrap;rounded=0;" vertex="1" parent="1">
          <mxGeometry x="500" y="840" width="60" height="30" as="geometry" />
        </mxCell>
        <mxCell id="dPcStUMOsakTPGtHqcJx-57" value="&lt;font style=&quot;font-size: 24px;&quot;&gt;img&lt;/font&gt;" style="text;html=1;strokeColor=none;fillColor=none;align=center;verticalAlign=middle;whiteSpace=wrap;rounded=0;" vertex="1" parent="1">
          <mxGeometry x="500" y="1045" width="60" height="30" as="geometry" />
        </mxCell>
        <mxCell id="dPcStUMOsakTPGtHqcJx-58" value="&lt;font style=&quot;font-size: 24px;&quot;&gt;img&lt;/font&gt;" style="text;html=1;strokeColor=none;fillColor=none;align=center;verticalAlign=middle;whiteSpace=wrap;rounded=0;" vertex="1" parent="1">
          <mxGeometry x="80" y="1040" width="60" height="30" as="geometry" />
        </mxCell>
        <mxCell id="dPcStUMOsakTPGtHqcJx-59" value="&lt;font style=&quot;font-size: 24px;&quot;&gt;Text&lt;/font&gt;" style="text;html=1;strokeColor=none;fillColor=none;align=center;verticalAlign=middle;whiteSpace=wrap;rounded=0;" vertex="1" parent="1">
          <mxGeometry x="240" y="845" width="70" height="45" as="geometry" />
        </mxCell>
        <mxCell id="dPcStUMOsakTPGtHqcJx-60" value="&lt;font style=&quot;font-size: 24px;&quot;&gt;Text&lt;/font&gt;" style="text;html=1;strokeColor=none;fillColor=none;align=center;verticalAlign=middle;whiteSpace=wrap;rounded=0;" vertex="1" parent="1">
          <mxGeometry x="690" y="835" width="70" height="45" as="geometry" />
        </mxCell>
        <mxCell id="dPcStUMOsakTPGtHqcJx-61" value="&lt;font style=&quot;font-size: 24px;&quot;&gt;Text&lt;/font&gt;" style="text;html=1;strokeColor=none;fillColor=none;align=center;verticalAlign=middle;whiteSpace=wrap;rounded=0;" vertex="1" parent="1">
          <mxGeometry x="685" y="1045" width="70" height="45" as="geometry" />
        </mxCell>
        <mxCell id="dPcStUMOsakTPGtHqcJx-62" value="&lt;font style=&quot;font-size: 24px;&quot;&gt;Text&lt;/font&gt;" style="text;html=1;strokeColor=none;fillColor=none;align=center;verticalAlign=middle;whiteSpace=wrap;rounded=0;" vertex="1" parent="1">
          <mxGeometry x="240" y="1030" width="70" height="45" as="geometry" />
        </mxCell>
        <mxCell id="dPcStUMOsakTPGtHqcJx-63" value="&lt;h2 style=&quot;box-sizing: border-box; font-family: &amp;quot;Roboto Slab&amp;quot;, serif; font-weight: 400; line-height: 1.5; color: rgb(255, 255, 255); margin-top: 0px; font-size: 24px; margin-right: 0px; margin-left: 0px; text-transform: uppercase; position: relative; font-style: normal; font-variant-ligatures: normal; font-variant-caps: normal; letter-spacing: normal; orphans: 2; text-align: center; text-indent: 0px; widows: 2; word-spacing: 0px; -webkit-text-stroke-width: 0px; background-color: rgb(31, 95, 139); text-decoration-thickness: initial; text-decoration-style: initial; text-decoration-color: initial; margin-bottom: 20px !important;&quot;&gt;&lt;span style=&quot;box-sizing: border-box; padding: 7px 15px; position: relative;&quot;&gt;TESTIMONIALS&lt;/span&gt;&lt;/h2&gt;" style="text;whiteSpace=wrap;html=1;" vertex="1" parent="1">
          <mxGeometry x="309" y="1230" width="210" height="80" as="geometry" />
        </mxCell>
        <mxCell id="dPcStUMOsakTPGtHqcJx-65" value="&lt;h2 style=&quot;box-sizing: border-box; font-family: &amp;quot;Roboto Slab&amp;quot;, serif; font-weight: 400; line-height: 1.5; color: rgb(0, 0, 0); margin: 0px 0px 20px; font-size: 24px; text-transform: uppercase; position: relative; font-style: normal; font-variant-ligatures: normal; font-variant-caps: normal; letter-spacing: normal; orphans: 2; text-align: center; text-indent: 0px; widows: 2; word-spacing: 0px; -webkit-text-stroke-width: 0px; background-color: rgb(255, 255, 255); text-decoration-thickness: initial; text-decoration-style: initial; text-decoration-color: initial;&quot;&gt;BLOG &amp;amp; EVENTS&lt;/h2&gt;" style="text;whiteSpace=wrap;html=1;" vertex="1" parent="1">
          <mxGeometry x="310" y="1350" width="190" height="80" as="geometry" />
        </mxCell>
        <mxCell id="dPcStUMOsakTPGtHqcJx-66" value="" style="ellipse;whiteSpace=wrap;html=1;aspect=fixed;" vertex="1" parent="1">
          <mxGeometry x="540" y="1440" width="80" height="80" as="geometry" />
        </mxCell>
        <mxCell id="dPcStUMOsakTPGtHqcJx-67" value="" style="ellipse;whiteSpace=wrap;html=1;aspect=fixed;" vertex="1" parent="1">
          <mxGeometry x="270" y="1440" width="80" height="80" as="geometry" />
        </mxCell>
        <mxCell id="dPcStUMOsakTPGtHqcJx-68" value="" style="ellipse;whiteSpace=wrap;html=1;aspect=fixed;" vertex="1" parent="1">
          <mxGeometry x="10" y="1440" width="80" height="80" as="geometry" />
        </mxCell>
        <mxCell id="dPcStUMOsakTPGtHqcJx-69" value="&lt;h1&gt;Heading&lt;/h1&gt;&lt;p&gt;content&lt;/p&gt;" style="text;html=1;strokeColor=none;fillColor=none;spacing=5;spacingTop=-20;whiteSpace=wrap;overflow=hidden;rounded=0;" vertex="1" parent="1">
          <mxGeometry x="90" y="1440" width="190" height="120" as="geometry" />
        </mxCell>
        <mxCell id="dPcStUMOsakTPGtHqcJx-70" value="&lt;h1&gt;Heading&lt;/h1&gt;&lt;p&gt;content&lt;br&gt;&lt;/p&gt;" style="text;html=1;strokeColor=none;fillColor=none;spacing=5;spacingTop=-20;whiteSpace=wrap;overflow=hidden;rounded=0;" vertex="1" parent="1">
          <mxGeometry x="365" y="1440" width="190" height="120" as="geometry" />
        </mxCell>
        <mxCell id="dPcStUMOsakTPGtHqcJx-71" value="&lt;h1&gt;Heading&lt;/h1&gt;&lt;p&gt;content&lt;br&gt;&lt;/p&gt;" style="text;html=1;strokeColor=none;fillColor=none;spacing=5;spacingTop=-20;whiteSpace=wrap;overflow=hidden;rounded=0;" vertex="1" parent="1">
          <mxGeometry x="625" y="1440" width="190" height="120" as="geometry" />
        </mxCell>
        <mxCell id="dPcStUMOsakTPGtHqcJx-72" value="" style="rounded=0;whiteSpace=wrap;html=1;" vertex="1" parent="1">
          <mxGeometry x="15" y="1530" width="205" height="230" as="geometry" />
        </mxCell>
        <mxCell id="dPcStUMOsakTPGtHqcJx-73" value="" style="rounded=0;whiteSpace=wrap;html=1;" vertex="1" parent="1">
          <mxGeometry x="605" y="1530" width="205" height="230" as="geometry" />
        </mxCell>
        <mxCell id="dPcStUMOsakTPGtHqcJx-74" value="" style="rounded=0;whiteSpace=wrap;html=1;" vertex="1" parent="1">
          <mxGeometry x="325" y="1530" width="205" height="230" as="geometry" />
        </mxCell>
        <mxCell id="dPcStUMOsakTPGtHqcJx-76" value="" style="endArrow=none;html=1;rounded=0;exitX=0;exitY=0.5;exitDx=0;exitDy=0;entryX=1;entryY=0.5;entryDx=0;entryDy=0;" edge="1" parent="1" source="dPcStUMOsakTPGtHqcJx-72" target="dPcStUMOsakTPGtHqcJx-72">
          <mxGeometry width="50" height="50" relative="1" as="geometry">
            <mxPoint x="560" y="1480" as="sourcePoint" />
            <mxPoint x="610" y="1430" as="targetPoint" />
          </mxGeometry>
        </mxCell>
        <mxCell id="dPcStUMOsakTPGtHqcJx-77" value="" style="endArrow=none;html=1;rounded=0;exitX=0;exitY=0.5;exitDx=0;exitDy=0;entryX=1;entryY=0.5;entryDx=0;entryDy=0;" edge="1" parent="1">
          <mxGeometry width="50" height="50" relative="1" as="geometry">
            <mxPoint x="605" y="1644.5" as="sourcePoint" />
            <mxPoint x="810" y="1644.5" as="targetPoint" />
          </mxGeometry>
        </mxCell>
        <mxCell id="dPcStUMOsakTPGtHqcJx-78" value="" style="endArrow=none;html=1;rounded=0;exitX=0;exitY=0.5;exitDx=0;exitDy=0;entryX=1;entryY=0.5;entryDx=0;entryDy=0;" edge="1" parent="1">
          <mxGeometry width="50" height="50" relative="1" as="geometry">
            <mxPoint x="325" y="1644.5" as="sourcePoint" />
            <mxPoint x="530" y="1644.5" as="targetPoint" />
          </mxGeometry>
        </mxCell>
        <mxCell id="dPcStUMOsakTPGtHqcJx-80" value="&lt;font style=&quot;font-size: 24px;&quot;&gt;img&lt;/font&gt;" style="text;html=1;strokeColor=none;fillColor=none;align=center;verticalAlign=middle;whiteSpace=wrap;rounded=0;" vertex="1" parent="1">
          <mxGeometry x="87.5" y="1570" width="60" height="30" as="geometry" />
        </mxCell>
        <mxCell id="dPcStUMOsakTPGtHqcJx-81" value="&lt;font style=&quot;font-size: 24px;&quot;&gt;img&lt;/font&gt;" style="text;html=1;strokeColor=none;fillColor=none;align=center;verticalAlign=middle;whiteSpace=wrap;rounded=0;" vertex="1" parent="1">
          <mxGeometry x="680" y="1570" width="60" height="30" as="geometry" />
        </mxCell>
        <mxCell id="dPcStUMOsakTPGtHqcJx-82" value="&lt;font style=&quot;font-size: 24px;&quot;&gt;img&lt;/font&gt;" style="text;html=1;strokeColor=none;fillColor=none;align=center;verticalAlign=middle;whiteSpace=wrap;rounded=0;" vertex="1" parent="1">
          <mxGeometry x="397.5" y="1570" width="60" height="30" as="geometry" />
        </mxCell>
        <mxCell id="dPcStUMOsakTPGtHqcJx-83" value="&lt;font style=&quot;font-size: 24px;&quot;&gt;Text&lt;/font&gt;" style="text;html=1;strokeColor=none;fillColor=none;align=center;verticalAlign=middle;whiteSpace=wrap;rounded=0;" vertex="1" parent="1">
          <mxGeometry x="77.5" y="1670" width="70" height="45" as="geometry" />
        </mxCell>
        <mxCell id="dPcStUMOsakTPGtHqcJx-84" value="&lt;font style=&quot;font-size: 24px;&quot;&gt;Text&lt;/font&gt;" style="text;html=1;strokeColor=none;fillColor=none;align=center;verticalAlign=middle;whiteSpace=wrap;rounded=0;" vertex="1" parent="1">
          <mxGeometry x="675" y="1670" width="70" height="45" as="geometry" />
        </mxCell>
        <mxCell id="dPcStUMOsakTPGtHqcJx-85" value="&lt;font style=&quot;font-size: 24px;&quot;&gt;Text&lt;/font&gt;" style="text;html=1;strokeColor=none;fillColor=none;align=center;verticalAlign=middle;whiteSpace=wrap;rounded=0;" vertex="1" parent="1">
          <mxGeometry x="392.5" y="1670" width="70" height="45" as="geometry" />
        </mxCell>
        <mxCell id="dPcStUMOsakTPGtHqcJx-86" value="&#xa;&lt;span style=&quot;color: rgb(130, 130, 130); font-family: &amp;quot;Source Sans Pro&amp;quot;, Arial, sans-serif; font-size: 15px; font-style: normal; font-variant-ligatures: normal; font-variant-caps: normal; font-weight: 400; letter-spacing: normal; orphans: 2; text-align: center; text-indent: 0px; text-transform: none; widows: 2; word-spacing: 0px; -webkit-text-stroke-width: 0px; background-color: rgb(255, 255, 255); text-decoration-thickness: initial; text-decoration-style: initial; text-decoration-color: initial; float: none; display: inline !important;&quot;&gt;© 2024 All rights reserved by Jojo/Zhou Jianlong/IT2&lt;/span&gt;&#xa;&#xa;" style="rounded=0;whiteSpace=wrap;html=1;" vertex="1" parent="1">
          <mxGeometry x="10" y="2550" width="820" height="40" as="geometry" />
        </mxCell>
      </root>
    </mxGraphModel>
  </diagram>
  <diagram id="dHVqQiXi9WlctGymYjWg" name="course">
    <mxGraphModel dx="1434" dy="836" grid="1" gridSize="10" guides="1" tooltips="1" connect="1" arrows="1" fold="1" page="1" pageScale="1" pageWidth="827" pageHeight="1169" math="0" shadow="0">
      <root>
        <mxCell id="0" />
        <mxCell id="1" parent="0" />
        <mxCell id="iEf8ZUyMWgMGiqTCWPQP-1" value="" style="rounded=0;whiteSpace=wrap;html=1;" vertex="1" parent="1">
          <mxGeometry x="690" y="20" width="60" height="40" as="geometry" />
        </mxCell>
        <mxCell id="iEf8ZUyMWgMGiqTCWPQP-2" value="" style="rounded=0;whiteSpace=wrap;html=1;" vertex="1" parent="1">
          <mxGeometry x="620" y="20" width="60" height="40" as="geometry" />
        </mxCell>
        <mxCell id="iEf8ZUyMWgMGiqTCWPQP-3" value="" style="rounded=0;whiteSpace=wrap;html=1;" vertex="1" parent="1">
          <mxGeometry x="550" y="20" width="60" height="40" as="geometry" />
        </mxCell>
        <mxCell id="iEf8ZUyMWgMGiqTCWPQP-4" value="" style="rounded=0;whiteSpace=wrap;html=1;" vertex="1" parent="1">
          <mxGeometry x="480" y="20" width="60" height="40" as="geometry" />
        </mxCell>
        <mxCell id="iEf8ZUyMWgMGiqTCWPQP-5" value="" style="rounded=0;whiteSpace=wrap;html=1;" vertex="1" parent="1">
          <mxGeometry x="410" y="20" width="60" height="40" as="geometry" />
        </mxCell>
        <mxCell id="iEf8ZUyMWgMGiqTCWPQP-6" value="" style="rounded=0;whiteSpace=wrap;html=1;" vertex="1" parent="1">
          <mxGeometry x="340" y="20" width="60" height="40" as="geometry" />
        </mxCell>
        <mxCell id="iEf8ZUyMWgMGiqTCWPQP-7" value="" style="rounded=0;whiteSpace=wrap;html=1;" vertex="1" parent="1">
          <mxGeometry x="270" y="20" width="60" height="40" as="geometry" />
        </mxCell>
        <mxCell id="iEf8ZUyMWgMGiqTCWPQP-8" value="courses" style="text;html=1;strokeColor=none;fillColor=none;align=center;verticalAlign=middle;whiteSpace=wrap;rounded=0;" vertex="1" parent="1">
          <mxGeometry x="340" y="25" width="60" height="30" as="geometry" />
        </mxCell>
        <mxCell id="iEf8ZUyMWgMGiqTCWPQP-9" value="contact" style="text;html=1;strokeColor=none;fillColor=none;align=center;verticalAlign=middle;whiteSpace=wrap;rounded=0;" vertex="1" parent="1">
          <mxGeometry x="690" y="25" width="60" height="30" as="geometry" />
        </mxCell>
        <mxCell id="iEf8ZUyMWgMGiqTCWPQP-10" value="blog" style="text;html=1;strokeColor=none;fillColor=none;align=center;verticalAlign=middle;whiteSpace=wrap;rounded=0;" vertex="1" parent="1">
          <mxGeometry x="620" y="25" width="60" height="30" as="geometry" />
        </mxCell>
        <mxCell id="iEf8ZUyMWgMGiqTCWPQP-11" value="home" style="text;html=1;strokeColor=none;fillColor=none;align=center;verticalAlign=middle;whiteSpace=wrap;rounded=0;" vertex="1" parent="1">
          <mxGeometry x="270" y="25" width="60" height="30" as="geometry" />
        </mxCell>
        <mxCell id="iEf8ZUyMWgMGiqTCWPQP-12" value="pricing" style="text;html=1;strokeColor=none;fillColor=none;align=center;verticalAlign=middle;whiteSpace=wrap;rounded=0;" vertex="1" parent="1">
          <mxGeometry x="550" y="25" width="60" height="30" as="geometry" />
        </mxCell>
        <mxCell id="iEf8ZUyMWgMGiqTCWPQP-13" value="about" style="text;html=1;strokeColor=none;fillColor=none;align=center;verticalAlign=middle;whiteSpace=wrap;rounded=0;" vertex="1" parent="1">
          <mxGeometry x="480" y="25" width="60" height="30" as="geometry" />
        </mxCell>
        <mxCell id="iEf8ZUyMWgMGiqTCWPQP-14" value="teacher" style="text;html=1;strokeColor=none;fillColor=none;align=center;verticalAlign=middle;whiteSpace=wrap;rounded=0;" vertex="1" parent="1">
          <mxGeometry x="410" y="25" width="60" height="30" as="geometry" />
        </mxCell>
        <mxCell id="iEf8ZUyMWgMGiqTCWPQP-15" value="" style="endArrow=none;html=1;rounded=0;" edge="1" parent="1">
          <mxGeometry width="50" height="50" relative="1" as="geometry">
            <mxPoint x="4" y="19.5" as="sourcePoint" />
            <mxPoint x="824" y="19.5" as="targetPoint" />
          </mxGeometry>
        </mxCell>
        <mxCell id="iEf8ZUyMWgMGiqTCWPQP-16" value="logo" style="rounded=0;whiteSpace=wrap;html=1;" vertex="1" parent="1">
          <mxGeometry x="70" y="20" width="120" height="40" as="geometry" />
        </mxCell>
        <mxCell id="iEf8ZUyMWgMGiqTCWPQP-17" value="email" style="rounded=0;whiteSpace=wrap;html=1;" vertex="1" parent="1">
          <mxGeometry x="90" width="110" height="20" as="geometry" />
        </mxCell>
        <mxCell id="iEf8ZUyMWgMGiqTCWPQP-18" value="phone" style="rounded=0;whiteSpace=wrap;html=1;" vertex="1" parent="1">
          <mxGeometry x="630" width="110" height="20" as="geometry" />
        </mxCell>
        <mxCell id="iEf8ZUyMWgMGiqTCWPQP-19" value="&lt;font style=&quot;font-size: 72px;&quot;&gt;welcome&lt;/font&gt;" style="rounded=0;whiteSpace=wrap;html=1;" vertex="1" parent="1">
          <mxGeometry y="60" width="820" height="200" as="geometry" />
        </mxCell>
        <mxCell id="ueLR5Jz6GKGwTEXdF1LN-1" value="&lt;h2 style=&quot;box-sizing: border-box; font-family: &amp;quot;Roboto Slab&amp;quot;, serif; font-weight: 400; line-height: 1.5; color: rgb(0, 0, 0); margin: 0px 0px 20px; font-size: 24px; text-transform: uppercase; position: relative; font-style: normal; font-variant-ligatures: normal; font-variant-caps: normal; letter-spacing: normal; orphans: 2; text-align: center; text-indent: 0px; widows: 2; word-spacing: 0px; -webkit-text-stroke-width: 0px; background-color: rgb(255, 255, 255); text-decoration-thickness: initial; text-decoration-style: initial; text-decoration-color: initial;&quot;&gt;OUR COURSE&lt;/h2&gt;" style="text;whiteSpace=wrap;html=1;" vertex="1" parent="1">
          <mxGeometry x="337" y="260" width="150" height="80" as="geometry" />
        </mxCell>
        <mxCell id="ueLR5Jz6GKGwTEXdF1LN-2" value="" style="rounded=0;whiteSpace=wrap;html=1;" vertex="1" parent="1">
          <mxGeometry x="20" y="330" width="348" height="180" as="geometry" />
        </mxCell>
        <mxCell id="ueLR5Jz6GKGwTEXdF1LN-3" value="" style="rounded=0;whiteSpace=wrap;html=1;" vertex="1" parent="1">
          <mxGeometry x="443" y="330" width="365" height="180" as="geometry" />
        </mxCell>
        <mxCell id="ueLR5Jz6GKGwTEXdF1LN-4" value="" style="endArrow=none;html=1;rounded=0;exitX=0.5;exitY=0;exitDx=0;exitDy=0;entryX=0.5;entryY=1;entryDx=0;entryDy=0;" edge="1" parent="1" source="ueLR5Jz6GKGwTEXdF1LN-2" target="ueLR5Jz6GKGwTEXdF1LN-2">
          <mxGeometry width="50" height="50" relative="1" as="geometry">
            <mxPoint x="228" y="390" as="sourcePoint" />
            <mxPoint x="153" y="390" as="targetPoint" />
          </mxGeometry>
        </mxCell>
        <mxCell id="ueLR5Jz6GKGwTEXdF1LN-5" value="" style="endArrow=none;html=1;rounded=0;exitX=0.5;exitY=1;exitDx=0;exitDy=0;entryX=0.5;entryY=0;entryDx=0;entryDy=0;" edge="1" parent="1" source="ueLR5Jz6GKGwTEXdF1LN-3" target="ueLR5Jz6GKGwTEXdF1LN-3">
          <mxGeometry width="50" height="50" relative="1" as="geometry">
            <mxPoint x="558" y="350" as="sourcePoint" />
            <mxPoint x="608" y="300" as="targetPoint" />
          </mxGeometry>
        </mxCell>
        <mxCell id="ueLR5Jz6GKGwTEXdF1LN-6" value="&lt;font style=&quot;font-size: 24px;&quot;&gt;img&lt;/font&gt;" style="text;html=1;strokeColor=none;fillColor=none;align=center;verticalAlign=middle;whiteSpace=wrap;rounded=0;" vertex="1" parent="1">
          <mxGeometry x="68" y="410" width="60" height="30" as="geometry" />
        </mxCell>
        <mxCell id="ueLR5Jz6GKGwTEXdF1LN-7" value="&lt;font style=&quot;font-size: 24px;&quot;&gt;img&lt;/font&gt;" style="text;html=1;strokeColor=none;fillColor=none;align=center;verticalAlign=middle;whiteSpace=wrap;rounded=0;" vertex="1" parent="1">
          <mxGeometry x="498" y="400" width="60" height="30" as="geometry" />
        </mxCell>
        <mxCell id="ueLR5Jz6GKGwTEXdF1LN-10" value="&lt;font style=&quot;font-size: 24px;&quot;&gt;Text&lt;/font&gt;" style="text;html=1;strokeColor=none;fillColor=none;align=center;verticalAlign=middle;whiteSpace=wrap;rounded=0;" vertex="1" parent="1">
          <mxGeometry x="238" y="405" width="70" height="45" as="geometry" />
        </mxCell>
        <mxCell id="ueLR5Jz6GKGwTEXdF1LN-11" value="&lt;font style=&quot;font-size: 24px;&quot;&gt;Text&lt;/font&gt;" style="text;html=1;strokeColor=none;fillColor=none;align=center;verticalAlign=middle;whiteSpace=wrap;rounded=0;" vertex="1" parent="1">
          <mxGeometry x="688" y="395" width="70" height="45" as="geometry" />
        </mxCell>
        <mxCell id="ti-CyoD32OXEx1bTNj0V-1" value="&lt;font style=&quot;font-size: 72px;&quot;&gt;Discount countdown&lt;/font&gt;" style="rounded=0;whiteSpace=wrap;html=1;" vertex="1" parent="1">
          <mxGeometry x="2" y="710" width="820" height="195" as="geometry" />
        </mxCell>
        <mxCell id="ti-CyoD32OXEx1bTNj0V-3" value="" style="rounded=0;whiteSpace=wrap;html=1;" vertex="1" parent="1">
          <mxGeometry x="20" y="520" width="348" height="180" as="geometry" />
        </mxCell>
        <mxCell id="ti-CyoD32OXEx1bTNj0V-4" value="" style="rounded=0;whiteSpace=wrap;html=1;" vertex="1" parent="1">
          <mxGeometry x="443" y="520" width="365" height="180" as="geometry" />
        </mxCell>
        <mxCell id="ti-CyoD32OXEx1bTNj0V-5" value="" style="endArrow=none;html=1;rounded=0;exitX=0.5;exitY=0;exitDx=0;exitDy=0;entryX=0.5;entryY=1;entryDx=0;entryDy=0;" edge="1" parent="1" source="ti-CyoD32OXEx1bTNj0V-3" target="ti-CyoD32OXEx1bTNj0V-3">
          <mxGeometry width="50" height="50" relative="1" as="geometry">
            <mxPoint x="228" y="580" as="sourcePoint" />
            <mxPoint x="153" y="580" as="targetPoint" />
          </mxGeometry>
        </mxCell>
        <mxCell id="ti-CyoD32OXEx1bTNj0V-6" value="" style="endArrow=none;html=1;rounded=0;exitX=0.5;exitY=1;exitDx=0;exitDy=0;entryX=0.5;entryY=0;entryDx=0;entryDy=0;" edge="1" parent="1" source="ti-CyoD32OXEx1bTNj0V-4" target="ti-CyoD32OXEx1bTNj0V-4">
          <mxGeometry width="50" height="50" relative="1" as="geometry">
            <mxPoint x="558" y="540" as="sourcePoint" />
            <mxPoint x="608" y="490" as="targetPoint" />
          </mxGeometry>
        </mxCell>
        <mxCell id="ti-CyoD32OXEx1bTNj0V-7" value="&lt;font style=&quot;font-size: 24px;&quot;&gt;img&lt;/font&gt;" style="text;html=1;strokeColor=none;fillColor=none;align=center;verticalAlign=middle;whiteSpace=wrap;rounded=0;" vertex="1" parent="1">
          <mxGeometry x="68" y="600" width="60" height="30" as="geometry" />
        </mxCell>
        <mxCell id="ti-CyoD32OXEx1bTNj0V-8" value="&lt;font style=&quot;font-size: 24px;&quot;&gt;img&lt;/font&gt;" style="text;html=1;strokeColor=none;fillColor=none;align=center;verticalAlign=middle;whiteSpace=wrap;rounded=0;" vertex="1" parent="1">
          <mxGeometry x="498" y="590" width="60" height="30" as="geometry" />
        </mxCell>
        <mxCell id="ti-CyoD32OXEx1bTNj0V-9" value="&lt;font style=&quot;font-size: 24px;&quot;&gt;Text&lt;/font&gt;" style="text;html=1;strokeColor=none;fillColor=none;align=center;verticalAlign=middle;whiteSpace=wrap;rounded=0;" vertex="1" parent="1">
          <mxGeometry x="238" y="595" width="70" height="45" as="geometry" />
        </mxCell>
        <mxCell id="ti-CyoD32OXEx1bTNj0V-10" value="&lt;font style=&quot;font-size: 24px;&quot;&gt;Text&lt;/font&gt;" style="text;html=1;strokeColor=none;fillColor=none;align=center;verticalAlign=middle;whiteSpace=wrap;rounded=0;" vertex="1" parent="1">
          <mxGeometry x="688" y="585" width="70" height="45" as="geometry" />
        </mxCell>
        <mxCell id="0zQc-FXLcDM96v3DEMDe-1" value="Title" style="text;strokeColor=none;fillColor=none;html=1;fontSize=24;fontStyle=1;verticalAlign=middle;align=center;" vertex="1" parent="1">
          <mxGeometry x="150" y="930" width="100" height="40" as="geometry" />
        </mxCell>
        <mxCell id="0zQc-FXLcDM96v3DEMDe-2" value="Title" style="text;strokeColor=none;fillColor=none;html=1;fontSize=24;fontStyle=1;verticalAlign=middle;align=center;" vertex="1" parent="1">
          <mxGeometry x="630" y="930" width="100" height="40" as="geometry" />
        </mxCell>
        <mxCell id="0zQc-FXLcDM96v3DEMDe-3" value="Title" style="text;strokeColor=none;fillColor=none;html=1;fontSize=24;fontStyle=1;verticalAlign=middle;align=center;" vertex="1" parent="1">
          <mxGeometry x="460" y="930" width="100" height="40" as="geometry" />
        </mxCell>
        <mxCell id="0zQc-FXLcDM96v3DEMDe-4" value="Title" style="text;strokeColor=none;fillColor=none;html=1;fontSize=24;fontStyle=1;verticalAlign=middle;align=center;" vertex="1" parent="1">
          <mxGeometry x="310" y="930" width="100" height="40" as="geometry" />
        </mxCell>
        <mxCell id="0zQc-FXLcDM96v3DEMDe-5" value="about" style="text;strokeColor=none;fillColor=none;html=1;fontSize=24;fontStyle=1;verticalAlign=middle;align=center;" vertex="1" parent="1">
          <mxGeometry y="970" width="100" height="40" as="geometry" />
        </mxCell>
        <mxCell id="0zQc-FXLcDM96v3DEMDe-6" value="&lt;ul&gt;&lt;li&gt;Value 1&lt;/li&gt;&lt;li&gt;Value 2&lt;/li&gt;&lt;li&gt;Value 3&lt;/li&gt;&lt;/ul&gt;" style="text;strokeColor=none;fillColor=none;html=1;whiteSpace=wrap;verticalAlign=middle;overflow=hidden;" vertex="1" parent="1">
          <mxGeometry x="150" y="960" width="100" height="80" as="geometry" />
        </mxCell>
        <mxCell id="0zQc-FXLcDM96v3DEMDe-7" value="&lt;ul&gt;&lt;li&gt;Value 1&lt;/li&gt;&lt;li&gt;Value 2&lt;/li&gt;&lt;li&gt;Value 3&lt;/li&gt;&lt;/ul&gt;" style="text;strokeColor=none;fillColor=none;html=1;whiteSpace=wrap;verticalAlign=middle;overflow=hidden;" vertex="1" parent="1">
          <mxGeometry x="310" y="960" width="100" height="80" as="geometry" />
        </mxCell>
        <mxCell id="0zQc-FXLcDM96v3DEMDe-8" value="&lt;ul&gt;&lt;li&gt;Value 1&lt;/li&gt;&lt;li&gt;Value 2&lt;/li&gt;&lt;li&gt;Value 3&lt;/li&gt;&lt;/ul&gt;" style="text;strokeColor=none;fillColor=none;html=1;whiteSpace=wrap;verticalAlign=middle;overflow=hidden;" vertex="1" parent="1">
          <mxGeometry x="460" y="960" width="100" height="80" as="geometry" />
        </mxCell>
        <mxCell id="0zQc-FXLcDM96v3DEMDe-9" value="&lt;ul&gt;&lt;li&gt;Value 1&lt;/li&gt;&lt;li&gt;Value 2&lt;/li&gt;&lt;li&gt;Value 3&lt;/li&gt;&lt;/ul&gt;" style="text;strokeColor=none;fillColor=none;html=1;whiteSpace=wrap;verticalAlign=middle;overflow=hidden;" vertex="1" parent="1">
          <mxGeometry x="630" y="960" width="100" height="80" as="geometry" />
        </mxCell>
        <mxCell id="0zQc-FXLcDM96v3DEMDe-10" value="&#xa;&lt;span style=&quot;color: rgb(130, 130, 130); font-family: &amp;quot;Source Sans Pro&amp;quot;, Arial, sans-serif; font-size: 15px; font-style: normal; font-variant-ligatures: normal; font-variant-caps: normal; font-weight: 400; letter-spacing: normal; orphans: 2; text-align: center; text-indent: 0px; text-transform: none; widows: 2; word-spacing: 0px; -webkit-text-stroke-width: 0px; background-color: rgb(255, 255, 255); text-decoration-thickness: initial; text-decoration-style: initial; text-decoration-color: initial; float: none; display: inline !important;&quot;&gt;© 2024 All rights reserved by Jojo/Zhou Jianlong/IT2&lt;/span&gt;&#xa;&#xa;" style="rounded=0;whiteSpace=wrap;html=1;" vertex="1" parent="1">
          <mxGeometry x="6" y="1110" width="820" height="40" as="geometry" />
        </mxCell>
      </root>
    </mxGraphModel>
  </diagram>
  <diagram id="gN9tXegmdSZ3B25TPlcM" name="teacher">
    <mxGraphModel dx="1434" dy="836" grid="1" gridSize="10" guides="1" tooltips="1" connect="1" arrows="1" fold="1" page="1" pageScale="1" pageWidth="827" pageHeight="1169" math="0" shadow="0">
      <root>
        <mxCell id="0" />
        <mxCell id="1" parent="0" />
        <mxCell id="JIje8OB2moZDj4i1-KR3-1" value="" style="rounded=0;whiteSpace=wrap;html=1;" vertex="1" parent="1">
          <mxGeometry x="690" y="20" width="60" height="40" as="geometry" />
        </mxCell>
        <mxCell id="JIje8OB2moZDj4i1-KR3-2" value="" style="rounded=0;whiteSpace=wrap;html=1;" vertex="1" parent="1">
          <mxGeometry x="620" y="20" width="60" height="40" as="geometry" />
        </mxCell>
        <mxCell id="JIje8OB2moZDj4i1-KR3-3" value="" style="rounded=0;whiteSpace=wrap;html=1;" vertex="1" parent="1">
          <mxGeometry x="550" y="20" width="60" height="40" as="geometry" />
        </mxCell>
        <mxCell id="JIje8OB2moZDj4i1-KR3-4" value="" style="rounded=0;whiteSpace=wrap;html=1;" vertex="1" parent="1">
          <mxGeometry x="480" y="20" width="60" height="40" as="geometry" />
        </mxCell>
        <mxCell id="JIje8OB2moZDj4i1-KR3-5" value="" style="rounded=0;whiteSpace=wrap;html=1;" vertex="1" parent="1">
          <mxGeometry x="410" y="20" width="60" height="40" as="geometry" />
        </mxCell>
        <mxCell id="JIje8OB2moZDj4i1-KR3-6" value="" style="rounded=0;whiteSpace=wrap;html=1;" vertex="1" parent="1">
          <mxGeometry x="340" y="20" width="60" height="40" as="geometry" />
        </mxCell>
        <mxCell id="JIje8OB2moZDj4i1-KR3-7" value="" style="rounded=0;whiteSpace=wrap;html=1;" vertex="1" parent="1">
          <mxGeometry x="270" y="20" width="60" height="40" as="geometry" />
        </mxCell>
        <mxCell id="JIje8OB2moZDj4i1-KR3-8" value="courses" style="text;html=1;strokeColor=none;fillColor=none;align=center;verticalAlign=middle;whiteSpace=wrap;rounded=0;" vertex="1" parent="1">
          <mxGeometry x="340" y="25" width="60" height="30" as="geometry" />
        </mxCell>
        <mxCell id="JIje8OB2moZDj4i1-KR3-9" value="contact" style="text;html=1;strokeColor=none;fillColor=none;align=center;verticalAlign=middle;whiteSpace=wrap;rounded=0;" vertex="1" parent="1">
          <mxGeometry x="690" y="25" width="60" height="30" as="geometry" />
        </mxCell>
        <mxCell id="JIje8OB2moZDj4i1-KR3-10" value="blog" style="text;html=1;strokeColor=none;fillColor=none;align=center;verticalAlign=middle;whiteSpace=wrap;rounded=0;" vertex="1" parent="1">
          <mxGeometry x="620" y="25" width="60" height="30" as="geometry" />
        </mxCell>
        <mxCell id="JIje8OB2moZDj4i1-KR3-11" value="home" style="text;html=1;strokeColor=none;fillColor=none;align=center;verticalAlign=middle;whiteSpace=wrap;rounded=0;" vertex="1" parent="1">
          <mxGeometry x="270" y="25" width="60" height="30" as="geometry" />
        </mxCell>
        <mxCell id="JIje8OB2moZDj4i1-KR3-12" value="pricing" style="text;html=1;strokeColor=none;fillColor=none;align=center;verticalAlign=middle;whiteSpace=wrap;rounded=0;" vertex="1" parent="1">
          <mxGeometry x="550" y="25" width="60" height="30" as="geometry" />
        </mxCell>
        <mxCell id="JIje8OB2moZDj4i1-KR3-13" value="about" style="text;html=1;strokeColor=none;fillColor=none;align=center;verticalAlign=middle;whiteSpace=wrap;rounded=0;" vertex="1" parent="1">
          <mxGeometry x="480" y="25" width="60" height="30" as="geometry" />
        </mxCell>
        <mxCell id="JIje8OB2moZDj4i1-KR3-14" value="teacher" style="text;html=1;strokeColor=none;fillColor=none;align=center;verticalAlign=middle;whiteSpace=wrap;rounded=0;" vertex="1" parent="1">
          <mxGeometry x="410" y="25" width="60" height="30" as="geometry" />
        </mxCell>
        <mxCell id="JIje8OB2moZDj4i1-KR3-15" value="" style="endArrow=none;html=1;rounded=0;" edge="1" parent="1">
          <mxGeometry width="50" height="50" relative="1" as="geometry">
            <mxPoint x="4" y="19.5" as="sourcePoint" />
            <mxPoint x="824" y="19.5" as="targetPoint" />
          </mxGeometry>
        </mxCell>
        <mxCell id="JIje8OB2moZDj4i1-KR3-16" value="logo" style="rounded=0;whiteSpace=wrap;html=1;" vertex="1" parent="1">
          <mxGeometry x="70" y="20" width="120" height="40" as="geometry" />
        </mxCell>
        <mxCell id="JIje8OB2moZDj4i1-KR3-17" value="email" style="rounded=0;whiteSpace=wrap;html=1;" vertex="1" parent="1">
          <mxGeometry x="90" width="110" height="20" as="geometry" />
        </mxCell>
        <mxCell id="JIje8OB2moZDj4i1-KR3-18" value="phone" style="rounded=0;whiteSpace=wrap;html=1;" vertex="1" parent="1">
          <mxGeometry x="630" width="110" height="20" as="geometry" />
        </mxCell>
        <mxCell id="JIje8OB2moZDj4i1-KR3-19" value="&lt;font style=&quot;font-size: 72px;&quot;&gt;welcome&lt;/font&gt;" style="rounded=0;whiteSpace=wrap;html=1;" vertex="1" parent="1">
          <mxGeometry y="60" width="820" height="200" as="geometry" />
        </mxCell>
        <mxCell id="dro17OoHIp8umrEPI0bE-10" value="" style="rounded=0;whiteSpace=wrap;html=1;" vertex="1" parent="1">
          <mxGeometry x="20" y="270" width="140" height="170" as="geometry" />
        </mxCell>
        <mxCell id="dro17OoHIp8umrEPI0bE-11" value="" style="rounded=0;whiteSpace=wrap;html=1;" vertex="1" parent="1">
          <mxGeometry x="640" y="480" width="140" height="170" as="geometry" />
        </mxCell>
        <mxCell id="dro17OoHIp8umrEPI0bE-12" value="" style="rounded=0;whiteSpace=wrap;html=1;" vertex="1" parent="1">
          <mxGeometry x="430" y="480" width="140" height="170" as="geometry" />
        </mxCell>
        <mxCell id="dro17OoHIp8umrEPI0bE-13" value="" style="rounded=0;whiteSpace=wrap;html=1;" vertex="1" parent="1">
          <mxGeometry x="223" y="480" width="136" height="170" as="geometry" />
        </mxCell>
        <mxCell id="dro17OoHIp8umrEPI0bE-14" value="" style="rounded=0;whiteSpace=wrap;html=1;" vertex="1" parent="1">
          <mxGeometry x="20" y="480" width="140" height="170" as="geometry" />
        </mxCell>
        <mxCell id="dro17OoHIp8umrEPI0bE-15" value="" style="rounded=0;whiteSpace=wrap;html=1;" vertex="1" parent="1">
          <mxGeometry x="640" y="270" width="140" height="170" as="geometry" />
        </mxCell>
        <mxCell id="dro17OoHIp8umrEPI0bE-16" value="" style="rounded=0;whiteSpace=wrap;html=1;" vertex="1" parent="1">
          <mxGeometry x="430" y="270" width="135" height="170" as="geometry" />
        </mxCell>
        <mxCell id="dro17OoHIp8umrEPI0bE-17" value="" style="rounded=0;whiteSpace=wrap;html=1;" vertex="1" parent="1">
          <mxGeometry x="223" y="270" width="130" height="170" as="geometry" />
        </mxCell>
        <mxCell id="vsQiXGWsm7ATOeDC_caL-1" value="&lt;font style=&quot;font-size: 72px;&quot;&gt;Discount countdown&lt;/font&gt;" style="rounded=0;whiteSpace=wrap;html=1;" vertex="1" parent="1">
          <mxGeometry x="2" y="710" width="820" height="195" as="geometry" />
        </mxCell>
        <mxCell id="vsQiXGWsm7ATOeDC_caL-2" value="Title" style="text;strokeColor=none;fillColor=none;html=1;fontSize=24;fontStyle=1;verticalAlign=middle;align=center;" vertex="1" parent="1">
          <mxGeometry x="150" y="930" width="100" height="40" as="geometry" />
        </mxCell>
        <mxCell id="vsQiXGWsm7ATOeDC_caL-3" value="Title" style="text;strokeColor=none;fillColor=none;html=1;fontSize=24;fontStyle=1;verticalAlign=middle;align=center;" vertex="1" parent="1">
          <mxGeometry x="630" y="930" width="100" height="40" as="geometry" />
        </mxCell>
        <mxCell id="vsQiXGWsm7ATOeDC_caL-4" value="Title" style="text;strokeColor=none;fillColor=none;html=1;fontSize=24;fontStyle=1;verticalAlign=middle;align=center;" vertex="1" parent="1">
          <mxGeometry x="460" y="930" width="100" height="40" as="geometry" />
        </mxCell>
        <mxCell id="vsQiXGWsm7ATOeDC_caL-5" value="Title" style="text;strokeColor=none;fillColor=none;html=1;fontSize=24;fontStyle=1;verticalAlign=middle;align=center;" vertex="1" parent="1">
          <mxGeometry x="310" y="930" width="100" height="40" as="geometry" />
        </mxCell>
        <mxCell id="vsQiXGWsm7ATOeDC_caL-6" value="about" style="text;strokeColor=none;fillColor=none;html=1;fontSize=24;fontStyle=1;verticalAlign=middle;align=center;" vertex="1" parent="1">
          <mxGeometry y="970" width="100" height="40" as="geometry" />
        </mxCell>
        <mxCell id="vsQiXGWsm7ATOeDC_caL-7" value="&lt;ul&gt;&lt;li&gt;Value 1&lt;/li&gt;&lt;li&gt;Value 2&lt;/li&gt;&lt;li&gt;Value 3&lt;/li&gt;&lt;/ul&gt;" style="text;strokeColor=none;fillColor=none;html=1;whiteSpace=wrap;verticalAlign=middle;overflow=hidden;" vertex="1" parent="1">
          <mxGeometry x="150" y="960" width="100" height="80" as="geometry" />
        </mxCell>
        <mxCell id="vsQiXGWsm7ATOeDC_caL-8" value="&lt;ul&gt;&lt;li&gt;Value 1&lt;/li&gt;&lt;li&gt;Value 2&lt;/li&gt;&lt;li&gt;Value 3&lt;/li&gt;&lt;/ul&gt;" style="text;strokeColor=none;fillColor=none;html=1;whiteSpace=wrap;verticalAlign=middle;overflow=hidden;" vertex="1" parent="1">
          <mxGeometry x="310" y="960" width="100" height="80" as="geometry" />
        </mxCell>
        <mxCell id="vsQiXGWsm7ATOeDC_caL-9" value="&lt;ul&gt;&lt;li&gt;Value 1&lt;/li&gt;&lt;li&gt;Value 2&lt;/li&gt;&lt;li&gt;Value 3&lt;/li&gt;&lt;/ul&gt;" style="text;strokeColor=none;fillColor=none;html=1;whiteSpace=wrap;verticalAlign=middle;overflow=hidden;" vertex="1" parent="1">
          <mxGeometry x="460" y="960" width="100" height="80" as="geometry" />
        </mxCell>
        <mxCell id="vsQiXGWsm7ATOeDC_caL-10" value="&lt;ul&gt;&lt;li&gt;Value 1&lt;/li&gt;&lt;li&gt;Value 2&lt;/li&gt;&lt;li&gt;Value 3&lt;/li&gt;&lt;/ul&gt;" style="text;strokeColor=none;fillColor=none;html=1;whiteSpace=wrap;verticalAlign=middle;overflow=hidden;" vertex="1" parent="1">
          <mxGeometry x="630" y="960" width="100" height="80" as="geometry" />
        </mxCell>
        <mxCell id="vsQiXGWsm7ATOeDC_caL-11" value="&#xa;&lt;span style=&quot;color: rgb(130, 130, 130); font-family: &amp;quot;Source Sans Pro&amp;quot;, Arial, sans-serif; font-size: 15px; font-style: normal; font-variant-ligatures: normal; font-variant-caps: normal; font-weight: 400; letter-spacing: normal; orphans: 2; text-align: center; text-indent: 0px; text-transform: none; widows: 2; word-spacing: 0px; -webkit-text-stroke-width: 0px; background-color: rgb(255, 255, 255); text-decoration-thickness: initial; text-decoration-style: initial; text-decoration-color: initial; float: none; display: inline !important;&quot;&gt;© 2024 All rights reserved by Jojo/Zhou Jianlong/IT2&lt;/span&gt;&#xa;&#xa;" style="rounded=0;whiteSpace=wrap;html=1;" vertex="1" parent="1">
          <mxGeometry x="6" y="1110" width="820" height="40" as="geometry" />
        </mxCell>
        <mxCell id="vsQiXGWsm7ATOeDC_caL-14" value="teacher" style="text;html=1;strokeColor=none;fillColor=none;align=center;verticalAlign=middle;whiteSpace=wrap;rounded=0;" vertex="1" parent="1">
          <mxGeometry x="60" y="440" width="60" height="30" as="geometry" />
        </mxCell>
        <mxCell id="vsQiXGWsm7ATOeDC_caL-15" value="teacher" style="text;html=1;strokeColor=none;fillColor=none;align=center;verticalAlign=middle;whiteSpace=wrap;rounded=0;" vertex="1" parent="1">
          <mxGeometry x="680" y="660" width="60" height="30" as="geometry" />
        </mxCell>
        <mxCell id="vsQiXGWsm7ATOeDC_caL-16" value="teacher" style="text;html=1;strokeColor=none;fillColor=none;align=center;verticalAlign=middle;whiteSpace=wrap;rounded=0;" vertex="1" parent="1">
          <mxGeometry x="467.5" y="660" width="60" height="30" as="geometry" />
        </mxCell>
        <mxCell id="vsQiXGWsm7ATOeDC_caL-17" value="teacher" style="text;html=1;strokeColor=none;fillColor=none;align=center;verticalAlign=middle;whiteSpace=wrap;rounded=0;" vertex="1" parent="1">
          <mxGeometry x="680" y="440" width="60" height="30" as="geometry" />
        </mxCell>
        <mxCell id="vsQiXGWsm7ATOeDC_caL-18" value="teacher" style="text;html=1;strokeColor=none;fillColor=none;align=center;verticalAlign=middle;whiteSpace=wrap;rounded=0;" vertex="1" parent="1">
          <mxGeometry x="467.5" y="440" width="60" height="30" as="geometry" />
        </mxCell>
        <mxCell id="vsQiXGWsm7ATOeDC_caL-19" value="teacher" style="text;html=1;strokeColor=none;fillColor=none;align=center;verticalAlign=middle;whiteSpace=wrap;rounded=0;" vertex="1" parent="1">
          <mxGeometry x="258" y="440" width="60" height="30" as="geometry" />
        </mxCell>
        <mxCell id="vsQiXGWsm7ATOeDC_caL-20" value="teacher" style="text;html=1;strokeColor=none;fillColor=none;align=center;verticalAlign=middle;whiteSpace=wrap;rounded=0;" vertex="1" parent="1">
          <mxGeometry x="258" y="660" width="60" height="30" as="geometry" />
        </mxCell>
        <mxCell id="vsQiXGWsm7ATOeDC_caL-21" value="teacher" style="text;html=1;strokeColor=none;fillColor=none;align=center;verticalAlign=middle;whiteSpace=wrap;rounded=0;" vertex="1" parent="1">
          <mxGeometry x="60" y="660" width="60" height="30" as="geometry" />
        </mxCell>
      </root>
    </mxGraphModel>
  </diagram>
  <diagram id="y8PrZuoID4MMOmmT1LMb" name="about">
    <mxGraphModel dx="1434" dy="836" grid="1" gridSize="10" guides="1" tooltips="1" connect="1" arrows="1" fold="1" page="1" pageScale="1" pageWidth="827" pageHeight="100" math="0" shadow="0">
      <root>
        <mxCell id="0" />
        <mxCell id="1" parent="0" />
        <mxCell id="sDeStz7uUu2Hq_1nqImu-1" value="" style="rounded=0;whiteSpace=wrap;html=1;" vertex="1" parent="1">
          <mxGeometry x="690" y="20" width="60" height="40" as="geometry" />
        </mxCell>
        <mxCell id="sDeStz7uUu2Hq_1nqImu-2" value="" style="rounded=0;whiteSpace=wrap;html=1;" vertex="1" parent="1">
          <mxGeometry x="620" y="20" width="60" height="40" as="geometry" />
        </mxCell>
        <mxCell id="sDeStz7uUu2Hq_1nqImu-3" value="" style="rounded=0;whiteSpace=wrap;html=1;" vertex="1" parent="1">
          <mxGeometry x="550" y="20" width="60" height="40" as="geometry" />
        </mxCell>
        <mxCell id="sDeStz7uUu2Hq_1nqImu-4" value="" style="rounded=0;whiteSpace=wrap;html=1;" vertex="1" parent="1">
          <mxGeometry x="480" y="20" width="60" height="40" as="geometry" />
        </mxCell>
        <mxCell id="sDeStz7uUu2Hq_1nqImu-5" value="" style="rounded=0;whiteSpace=wrap;html=1;" vertex="1" parent="1">
          <mxGeometry x="410" y="20" width="60" height="40" as="geometry" />
        </mxCell>
        <mxCell id="sDeStz7uUu2Hq_1nqImu-6" value="" style="rounded=0;whiteSpace=wrap;html=1;" vertex="1" parent="1">
          <mxGeometry x="340" y="20" width="60" height="40" as="geometry" />
        </mxCell>
        <mxCell id="sDeStz7uUu2Hq_1nqImu-7" value="" style="rounded=0;whiteSpace=wrap;html=1;" vertex="1" parent="1">
          <mxGeometry x="270" y="20" width="60" height="40" as="geometry" />
        </mxCell>
        <mxCell id="sDeStz7uUu2Hq_1nqImu-8" value="courses" style="text;html=1;strokeColor=none;fillColor=none;align=center;verticalAlign=middle;whiteSpace=wrap;rounded=0;" vertex="1" parent="1">
          <mxGeometry x="340" y="25" width="60" height="30" as="geometry" />
        </mxCell>
        <mxCell id="sDeStz7uUu2Hq_1nqImu-9" value="contact" style="text;html=1;strokeColor=none;fillColor=none;align=center;verticalAlign=middle;whiteSpace=wrap;rounded=0;" vertex="1" parent="1">
          <mxGeometry x="690" y="25" width="60" height="30" as="geometry" />
        </mxCell>
        <mxCell id="sDeStz7uUu2Hq_1nqImu-10" value="blog" style="text;html=1;strokeColor=none;fillColor=none;align=center;verticalAlign=middle;whiteSpace=wrap;rounded=0;" vertex="1" parent="1">
          <mxGeometry x="620" y="25" width="60" height="30" as="geometry" />
        </mxCell>
        <mxCell id="sDeStz7uUu2Hq_1nqImu-11" value="home" style="text;html=1;strokeColor=none;fillColor=none;align=center;verticalAlign=middle;whiteSpace=wrap;rounded=0;" vertex="1" parent="1">
          <mxGeometry x="270" y="25" width="60" height="30" as="geometry" />
        </mxCell>
        <mxCell id="sDeStz7uUu2Hq_1nqImu-12" value="pricing" style="text;html=1;strokeColor=none;fillColor=none;align=center;verticalAlign=middle;whiteSpace=wrap;rounded=0;" vertex="1" parent="1">
          <mxGeometry x="550" y="25" width="60" height="30" as="geometry" />
        </mxCell>
        <mxCell id="sDeStz7uUu2Hq_1nqImu-13" value="about" style="text;html=1;strokeColor=none;fillColor=none;align=center;verticalAlign=middle;whiteSpace=wrap;rounded=0;" vertex="1" parent="1">
          <mxGeometry x="480" y="25" width="60" height="30" as="geometry" />
        </mxCell>
        <mxCell id="sDeStz7uUu2Hq_1nqImu-14" value="teacher" style="text;html=1;strokeColor=none;fillColor=none;align=center;verticalAlign=middle;whiteSpace=wrap;rounded=0;" vertex="1" parent="1">
          <mxGeometry x="410" y="25" width="60" height="30" as="geometry" />
        </mxCell>
        <mxCell id="sDeStz7uUu2Hq_1nqImu-15" value="" style="endArrow=none;html=1;rounded=0;" edge="1" parent="1">
          <mxGeometry width="50" height="50" relative="1" as="geometry">
            <mxPoint x="4" y="19.5" as="sourcePoint" />
            <mxPoint x="824" y="19.5" as="targetPoint" />
          </mxGeometry>
        </mxCell>
        <mxCell id="sDeStz7uUu2Hq_1nqImu-16" value="logo" style="rounded=0;whiteSpace=wrap;html=1;" vertex="1" parent="1">
          <mxGeometry x="70" y="20" width="120" height="40" as="geometry" />
        </mxCell>
        <mxCell id="sDeStz7uUu2Hq_1nqImu-17" value="email" style="rounded=0;whiteSpace=wrap;html=1;" vertex="1" parent="1">
          <mxGeometry x="90" width="110" height="20" as="geometry" />
        </mxCell>
        <mxCell id="sDeStz7uUu2Hq_1nqImu-18" value="phone" style="rounded=0;whiteSpace=wrap;html=1;" vertex="1" parent="1">
          <mxGeometry x="630" width="110" height="20" as="geometry" />
        </mxCell>
        <mxCell id="sDeStz7uUu2Hq_1nqImu-19" value="&lt;font style=&quot;font-size: 72px;&quot;&gt;welcome&lt;/font&gt;" style="rounded=0;whiteSpace=wrap;html=1;" vertex="1" parent="1">
          <mxGeometry y="60" width="820" height="200" as="geometry" />
        </mxCell>
        <mxCell id="SJV-pQER0XJiAEocIgi_-1" value="&lt;h1&gt;About&lt;/h1&gt;&lt;div&gt;content&lt;/div&gt;" style="text;html=1;strokeColor=none;fillColor=none;spacing=5;spacingTop=-20;whiteSpace=wrap;overflow=hidden;rounded=0;" vertex="1" parent="1">
          <mxGeometry x="150" y="320" width="190" height="120" as="geometry" />
        </mxCell>
        <mxCell id="SJV-pQER0XJiAEocIgi_-2" value="&lt;font style=&quot;font-size: 72px;&quot;&gt;img&lt;/font&gt;" style="rounded=0;whiteSpace=wrap;html=1;" vertex="1" parent="1">
          <mxGeometry x="430" y="270" width="360" height="190" as="geometry" />
        </mxCell>
        <mxCell id="a5ZODOI_o4DRz2K4ANJk-1" value="&lt;h2 style=&quot;box-sizing: border-box; font-family: &amp;quot;Roboto Slab&amp;quot;, serif; font-weight: 400; line-height: 1.5; color: rgb(0, 0, 0); margin: 0px 0px 20px; font-size: 24px; text-transform: uppercase; position: relative; font-style: normal; font-variant-ligatures: normal; font-variant-caps: normal; letter-spacing: normal; orphans: 2; text-align: center; text-indent: 0px; widows: 2; word-spacing: 0px; -webkit-text-stroke-width: 0px; background-color: rgb(255, 255, 255); text-decoration-thickness: initial; text-decoration-style: initial; text-decoration-color: initial;&quot;&gt;COURSE CATEGORIES&lt;/h2&gt;" style="text;whiteSpace=wrap;html=1;" vertex="1" parent="1">
          <mxGeometry x="282" y="585" width="240" height="80" as="geometry" />
        </mxCell>
        <mxCell id="a5ZODOI_o4DRz2K4ANJk-2" value="item" style="ellipse;whiteSpace=wrap;html=1;aspect=fixed;" vertex="1" parent="1">
          <mxGeometry x="637" y="760" width="50" height="50" as="geometry" />
        </mxCell>
        <mxCell id="a5ZODOI_o4DRz2K4ANJk-3" value="item" style="ellipse;whiteSpace=wrap;html=1;aspect=fixed;" vertex="1" parent="1">
          <mxGeometry x="467" y="760" width="50" height="50" as="geometry" />
        </mxCell>
        <mxCell id="a5ZODOI_o4DRz2K4ANJk-4" value="item" style="ellipse;whiteSpace=wrap;html=1;aspect=fixed;" vertex="1" parent="1">
          <mxGeometry x="297" y="760" width="50" height="50" as="geometry" />
        </mxCell>
        <mxCell id="a5ZODOI_o4DRz2K4ANJk-5" value="item" style="ellipse;whiteSpace=wrap;html=1;aspect=fixed;" vertex="1" parent="1">
          <mxGeometry x="137" y="760" width="50" height="50" as="geometry" />
        </mxCell>
        <mxCell id="a5ZODOI_o4DRz2K4ANJk-6" value="item" style="ellipse;whiteSpace=wrap;html=1;aspect=fixed;" vertex="1" parent="1">
          <mxGeometry x="637" y="645" width="50" height="50" as="geometry" />
        </mxCell>
        <mxCell id="a5ZODOI_o4DRz2K4ANJk-7" value="item" style="ellipse;whiteSpace=wrap;html=1;aspect=fixed;" vertex="1" parent="1">
          <mxGeometry x="467" y="645" width="50" height="50" as="geometry" />
        </mxCell>
        <mxCell id="a5ZODOI_o4DRz2K4ANJk-8" value="item" style="ellipse;whiteSpace=wrap;html=1;aspect=fixed;" vertex="1" parent="1">
          <mxGeometry x="297" y="645" width="50" height="50" as="geometry" />
        </mxCell>
        <mxCell id="a5ZODOI_o4DRz2K4ANJk-9" value="item" style="ellipse;whiteSpace=wrap;html=1;aspect=fixed;" vertex="1" parent="1">
          <mxGeometry x="137" y="645" width="50" height="50" as="geometry" />
        </mxCell>
        <mxCell id="a5ZODOI_o4DRz2K4ANJk-10" value="&lt;h1&gt;title&lt;/h1&gt;&lt;div&gt;content&lt;/div&gt;" style="text;html=1;strokeColor=none;fillColor=none;spacing=5;spacingTop=-20;whiteSpace=wrap;overflow=hidden;rounded=0;" vertex="1" parent="1">
          <mxGeometry x="137" y="690" width="90" height="70" as="geometry" />
        </mxCell>
        <mxCell id="a5ZODOI_o4DRz2K4ANJk-11" value="&lt;h1&gt;title&lt;/h1&gt;&lt;div&gt;content&lt;/div&gt;" style="text;html=1;strokeColor=none;fillColor=none;spacing=5;spacingTop=-20;whiteSpace=wrap;overflow=hidden;rounded=0;" vertex="1" parent="1">
          <mxGeometry x="297" y="695" width="90" height="70" as="geometry" />
        </mxCell>
        <mxCell id="a5ZODOI_o4DRz2K4ANJk-12" value="&lt;h1&gt;title&lt;/h1&gt;&lt;div&gt;content&lt;/div&gt;" style="text;html=1;strokeColor=none;fillColor=none;spacing=5;spacingTop=-20;whiteSpace=wrap;overflow=hidden;rounded=0;" vertex="1" parent="1">
          <mxGeometry x="637" y="690" width="90" height="70" as="geometry" />
        </mxCell>
        <mxCell id="a5ZODOI_o4DRz2K4ANJk-13" value="&lt;h1&gt;title&lt;/h1&gt;&lt;div&gt;content&lt;/div&gt;" style="text;html=1;strokeColor=none;fillColor=none;spacing=5;spacingTop=-20;whiteSpace=wrap;overflow=hidden;rounded=0;" vertex="1" parent="1">
          <mxGeometry x="467" y="695" width="90" height="70" as="geometry" />
        </mxCell>
        <mxCell id="a5ZODOI_o4DRz2K4ANJk-14" value="&lt;h1&gt;title&lt;/h1&gt;&lt;div&gt;content&lt;/div&gt;" style="text;html=1;strokeColor=none;fillColor=none;spacing=5;spacingTop=-20;whiteSpace=wrap;overflow=hidden;rounded=0;" vertex="1" parent="1">
          <mxGeometry x="137" y="810" width="90" height="70" as="geometry" />
        </mxCell>
        <mxCell id="a5ZODOI_o4DRz2K4ANJk-15" value="&lt;h1&gt;title&lt;/h1&gt;&lt;div&gt;content&lt;/div&gt;" style="text;html=1;strokeColor=none;fillColor=none;spacing=5;spacingTop=-20;whiteSpace=wrap;overflow=hidden;rounded=0;" vertex="1" parent="1">
          <mxGeometry x="299" y="810" width="90" height="70" as="geometry" />
        </mxCell>
        <mxCell id="a5ZODOI_o4DRz2K4ANJk-16" value="&lt;h1&gt;title&lt;/h1&gt;&lt;div&gt;content&lt;/div&gt;" style="text;html=1;strokeColor=none;fillColor=none;spacing=5;spacingTop=-20;whiteSpace=wrap;overflow=hidden;rounded=0;" vertex="1" parent="1">
          <mxGeometry x="637" y="810" width="90" height="70" as="geometry" />
        </mxCell>
        <mxCell id="a5ZODOI_o4DRz2K4ANJk-17" value="&lt;h1&gt;title&lt;/h1&gt;&lt;div&gt;content&lt;/div&gt;" style="text;html=1;strokeColor=none;fillColor=none;spacing=5;spacingTop=-20;whiteSpace=wrap;overflow=hidden;rounded=0;" vertex="1" parent="1">
          <mxGeometry x="467" y="810" width="90" height="70" as="geometry" />
        </mxCell>
        <mxCell id="a5ZODOI_o4DRz2K4ANJk-18" value="&lt;font style=&quot;font-size: 72px;&quot;&gt;data&lt;/font&gt;" style="rounded=0;whiteSpace=wrap;html=1;" vertex="1" parent="1">
          <mxGeometry x="4" y="460" width="816" height="140" as="geometry" />
        </mxCell>
        <mxCell id="C5KZg0OE8pztb5kPE2YY-1" value="&lt;font style=&quot;font-size: 72px;&quot;&gt;Discount countdown&lt;/font&gt;" style="rounded=0;whiteSpace=wrap;html=1;" vertex="1" parent="1">
          <mxGeometry y="890" width="820" height="195" as="geometry" />
        </mxCell>
        <mxCell id="C5KZg0OE8pztb5kPE2YY-2" value="&lt;h2 style=&quot;box-sizing: border-box; font-family: &amp;quot;Source Sans Pro&amp;quot;, Arial, sans-serif; font-weight: 700; line-height: 1.1; color: rgb(0, 0, 0); margin: 0px 0px 2.5em; font-size: 14px; text-transform: uppercase; letter-spacing: 2px; font-style: normal; font-variant-ligatures: normal; font-variant-caps: normal; orphans: 2; text-align: center; text-indent: 0px; widows: 2; word-spacing: 0px; -webkit-text-stroke-width: 0px; background-color: rgb(232, 232, 232); text-decoration-thickness: initial; text-decoration-style: initial; text-decoration-color: initial;&quot;&gt;&lt;span style=&quot;box-sizing: border-box; border: 2px solid rgba(0, 0, 0, 0.8); padding: 10px 15px; position: relative;&quot;&gt;INSTAGRAM GALLERY&lt;/span&gt;&lt;/h2&gt;" style="text;whiteSpace=wrap;html=1;" vertex="1" parent="1">
          <mxGeometry x="270" y="1100" width="260" height="70" as="geometry" />
        </mxCell>
        <mxCell id="C5KZg0OE8pztb5kPE2YY-3" value="" style="rounded=1;whiteSpace=wrap;html=1;" vertex="1" parent="1">
          <mxGeometry y="1135" width="156" height="115" as="geometry" />
        </mxCell>
        <mxCell id="C5KZg0OE8pztb5kPE2YY-4" value="" style="rounded=1;whiteSpace=wrap;html=1;" vertex="1" parent="1">
          <mxGeometry x="190" y="1140" width="170" height="110" as="geometry" />
        </mxCell>
        <mxCell id="C5KZg0OE8pztb5kPE2YY-5" value="" style="rounded=1;whiteSpace=wrap;html=1;" vertex="1" parent="1">
          <mxGeometry x="410" y="1140" width="160" height="110" as="geometry" />
        </mxCell>
        <mxCell id="C5KZg0OE8pztb5kPE2YY-6" value="" style="rounded=1;whiteSpace=wrap;html=1;" vertex="1" parent="1">
          <mxGeometry x="630" y="1140" width="160" height="110" as="geometry" />
        </mxCell>
        <mxCell id="C5KZg0OE8pztb5kPE2YY-7" value="Title" style="text;strokeColor=none;fillColor=none;html=1;fontSize=24;fontStyle=1;verticalAlign=middle;align=center;" vertex="1" parent="1">
          <mxGeometry x="150" y="1280" width="100" height="40" as="geometry" />
        </mxCell>
        <mxCell id="C5KZg0OE8pztb5kPE2YY-8" value="Title" style="text;strokeColor=none;fillColor=none;html=1;fontSize=24;fontStyle=1;verticalAlign=middle;align=center;" vertex="1" parent="1">
          <mxGeometry x="630" y="1280" width="100" height="40" as="geometry" />
        </mxCell>
        <mxCell id="C5KZg0OE8pztb5kPE2YY-9" value="Title" style="text;strokeColor=none;fillColor=none;html=1;fontSize=24;fontStyle=1;verticalAlign=middle;align=center;" vertex="1" parent="1">
          <mxGeometry x="460" y="1280" width="100" height="40" as="geometry" />
        </mxCell>
        <mxCell id="C5KZg0OE8pztb5kPE2YY-10" value="Title" style="text;strokeColor=none;fillColor=none;html=1;fontSize=24;fontStyle=1;verticalAlign=middle;align=center;" vertex="1" parent="1">
          <mxGeometry x="310" y="1280" width="100" height="40" as="geometry" />
        </mxCell>
        <mxCell id="C5KZg0OE8pztb5kPE2YY-11" value="about" style="text;strokeColor=none;fillColor=none;html=1;fontSize=24;fontStyle=1;verticalAlign=middle;align=center;" vertex="1" parent="1">
          <mxGeometry y="1320" width="100" height="40" as="geometry" />
        </mxCell>
        <mxCell id="C5KZg0OE8pztb5kPE2YY-12" value="&lt;ul&gt;&lt;li&gt;Value 1&lt;/li&gt;&lt;li&gt;Value 2&lt;/li&gt;&lt;li&gt;Value 3&lt;/li&gt;&lt;/ul&gt;" style="text;strokeColor=none;fillColor=none;html=1;whiteSpace=wrap;verticalAlign=middle;overflow=hidden;" vertex="1" parent="1">
          <mxGeometry x="150" y="1310" width="100" height="80" as="geometry" />
        </mxCell>
        <mxCell id="C5KZg0OE8pztb5kPE2YY-13" value="&lt;ul&gt;&lt;li&gt;Value 1&lt;/li&gt;&lt;li&gt;Value 2&lt;/li&gt;&lt;li&gt;Value 3&lt;/li&gt;&lt;/ul&gt;" style="text;strokeColor=none;fillColor=none;html=1;whiteSpace=wrap;verticalAlign=middle;overflow=hidden;" vertex="1" parent="1">
          <mxGeometry x="310" y="1310" width="100" height="80" as="geometry" />
        </mxCell>
        <mxCell id="C5KZg0OE8pztb5kPE2YY-14" value="&lt;ul&gt;&lt;li&gt;Value 1&lt;/li&gt;&lt;li&gt;Value 2&lt;/li&gt;&lt;li&gt;Value 3&lt;/li&gt;&lt;/ul&gt;" style="text;strokeColor=none;fillColor=none;html=1;whiteSpace=wrap;verticalAlign=middle;overflow=hidden;" vertex="1" parent="1">
          <mxGeometry x="460" y="1310" width="100" height="80" as="geometry" />
        </mxCell>
        <mxCell id="C5KZg0OE8pztb5kPE2YY-15" value="&lt;ul&gt;&lt;li&gt;Value 1&lt;/li&gt;&lt;li&gt;Value 2&lt;/li&gt;&lt;li&gt;Value 3&lt;/li&gt;&lt;/ul&gt;" style="text;strokeColor=none;fillColor=none;html=1;whiteSpace=wrap;verticalAlign=middle;overflow=hidden;" vertex="1" parent="1">
          <mxGeometry x="630" y="1310" width="100" height="80" as="geometry" />
        </mxCell>
        <mxCell id="C5KZg0OE8pztb5kPE2YY-16" value="&#xa;&lt;span style=&quot;color: rgb(130, 130, 130); font-family: &amp;quot;Source Sans Pro&amp;quot;, Arial, sans-serif; font-size: 15px; font-style: normal; font-variant-ligatures: normal; font-variant-caps: normal; font-weight: 400; letter-spacing: normal; orphans: 2; text-align: center; text-indent: 0px; text-transform: none; widows: 2; word-spacing: 0px; -webkit-text-stroke-width: 0px; background-color: rgb(255, 255, 255); text-decoration-thickness: initial; text-decoration-style: initial; text-decoration-color: initial; float: none; display: inline !important;&quot;&gt;© 2024 All rights reserved by Jojo/Zhou Jianlong/IT2&lt;/span&gt;&#xa;&#xa;" style="rounded=0;whiteSpace=wrap;html=1;" vertex="1" parent="1">
          <mxGeometry x="2" y="1450" width="820" height="40" as="geometry" />
        </mxCell>
      </root>
    </mxGraphModel>
  </diagram>
  <diagram id="2cvZPCNzWZ0bnt9JQObd" name="pricing">
    <mxGraphModel dx="1434" dy="836" grid="1" gridSize="10" guides="1" tooltips="1" connect="1" arrows="1" fold="1" page="1" pageScale="1" pageWidth="827" pageHeight="100" math="0" shadow="0">
      <root>
        <mxCell id="0" />
        <mxCell id="1" parent="0" />
        <mxCell id="Jj1i83e8YFuLv9M-v4DE-1" value="" style="rounded=0;whiteSpace=wrap;html=1;" vertex="1" parent="1">
          <mxGeometry x="690" y="20" width="60" height="40" as="geometry" />
        </mxCell>
        <mxCell id="Jj1i83e8YFuLv9M-v4DE-2" value="" style="rounded=0;whiteSpace=wrap;html=1;" vertex="1" parent="1">
          <mxGeometry x="620" y="20" width="60" height="40" as="geometry" />
        </mxCell>
        <mxCell id="Jj1i83e8YFuLv9M-v4DE-3" value="" style="rounded=0;whiteSpace=wrap;html=1;" vertex="1" parent="1">
          <mxGeometry x="550" y="20" width="60" height="40" as="geometry" />
        </mxCell>
        <mxCell id="Jj1i83e8YFuLv9M-v4DE-4" value="" style="rounded=0;whiteSpace=wrap;html=1;" vertex="1" parent="1">
          <mxGeometry x="480" y="20" width="60" height="40" as="geometry" />
        </mxCell>
        <mxCell id="Jj1i83e8YFuLv9M-v4DE-5" value="" style="rounded=0;whiteSpace=wrap;html=1;" vertex="1" parent="1">
          <mxGeometry x="410" y="20" width="60" height="40" as="geometry" />
        </mxCell>
        <mxCell id="Jj1i83e8YFuLv9M-v4DE-6" value="" style="rounded=0;whiteSpace=wrap;html=1;" vertex="1" parent="1">
          <mxGeometry x="340" y="20" width="60" height="40" as="geometry" />
        </mxCell>
        <mxCell id="Jj1i83e8YFuLv9M-v4DE-7" value="" style="rounded=0;whiteSpace=wrap;html=1;" vertex="1" parent="1">
          <mxGeometry x="270" y="20" width="60" height="40" as="geometry" />
        </mxCell>
        <mxCell id="Jj1i83e8YFuLv9M-v4DE-8" value="courses" style="text;html=1;strokeColor=none;fillColor=none;align=center;verticalAlign=middle;whiteSpace=wrap;rounded=0;" vertex="1" parent="1">
          <mxGeometry x="340" y="25" width="60" height="30" as="geometry" />
        </mxCell>
        <mxCell id="Jj1i83e8YFuLv9M-v4DE-9" value="contact" style="text;html=1;strokeColor=none;fillColor=none;align=center;verticalAlign=middle;whiteSpace=wrap;rounded=0;" vertex="1" parent="1">
          <mxGeometry x="690" y="25" width="60" height="30" as="geometry" />
        </mxCell>
        <mxCell id="Jj1i83e8YFuLv9M-v4DE-10" value="blog" style="text;html=1;strokeColor=none;fillColor=none;align=center;verticalAlign=middle;whiteSpace=wrap;rounded=0;" vertex="1" parent="1">
          <mxGeometry x="620" y="25" width="60" height="30" as="geometry" />
        </mxCell>
        <mxCell id="Jj1i83e8YFuLv9M-v4DE-11" value="home" style="text;html=1;strokeColor=none;fillColor=none;align=center;verticalAlign=middle;whiteSpace=wrap;rounded=0;" vertex="1" parent="1">
          <mxGeometry x="270" y="25" width="60" height="30" as="geometry" />
        </mxCell>
        <mxCell id="Jj1i83e8YFuLv9M-v4DE-12" value="pricing" style="text;html=1;strokeColor=none;fillColor=none;align=center;verticalAlign=middle;whiteSpace=wrap;rounded=0;" vertex="1" parent="1">
          <mxGeometry x="550" y="25" width="60" height="30" as="geometry" />
        </mxCell>
        <mxCell id="Jj1i83e8YFuLv9M-v4DE-13" value="about" style="text;html=1;strokeColor=none;fillColor=none;align=center;verticalAlign=middle;whiteSpace=wrap;rounded=0;" vertex="1" parent="1">
          <mxGeometry x="480" y="25" width="60" height="30" as="geometry" />
        </mxCell>
        <mxCell id="Jj1i83e8YFuLv9M-v4DE-14" value="teacher" style="text;html=1;strokeColor=none;fillColor=none;align=center;verticalAlign=middle;whiteSpace=wrap;rounded=0;" vertex="1" parent="1">
          <mxGeometry x="410" y="25" width="60" height="30" as="geometry" />
        </mxCell>
        <mxCell id="Jj1i83e8YFuLv9M-v4DE-15" value="" style="endArrow=none;html=1;rounded=0;" edge="1" parent="1">
          <mxGeometry width="50" height="50" relative="1" as="geometry">
            <mxPoint x="4" y="19.5" as="sourcePoint" />
            <mxPoint x="824" y="19.5" as="targetPoint" />
          </mxGeometry>
        </mxCell>
        <mxCell id="Jj1i83e8YFuLv9M-v4DE-16" value="logo" style="rounded=0;whiteSpace=wrap;html=1;" vertex="1" parent="1">
          <mxGeometry x="70" y="20" width="120" height="40" as="geometry" />
        </mxCell>
        <mxCell id="Jj1i83e8YFuLv9M-v4DE-17" value="email" style="rounded=0;whiteSpace=wrap;html=1;" vertex="1" parent="1">
          <mxGeometry x="90" width="110" height="20" as="geometry" />
        </mxCell>
        <mxCell id="Jj1i83e8YFuLv9M-v4DE-18" value="phone" style="rounded=0;whiteSpace=wrap;html=1;" vertex="1" parent="1">
          <mxGeometry x="630" width="110" height="20" as="geometry" />
        </mxCell>
        <mxCell id="Jj1i83e8YFuLv9M-v4DE-19" value="&lt;font style=&quot;font-size: 72px;&quot;&gt;welcome&lt;/font&gt;" style="rounded=0;whiteSpace=wrap;html=1;" vertex="1" parent="1">
          <mxGeometry y="60" width="820" height="200" as="geometry" />
        </mxCell>
        <mxCell id="wLrjcTH-we5CReHm95ZG-1" value="&#xa;&lt;h2 style=&quot;box-sizing: border-box; font-family: &amp;quot;Roboto Slab&amp;quot;, serif; font-weight: 400; line-height: 1.5; color: rgb(0, 0, 0); margin: 0px 0px 20px; font-size: 24px; text-transform: uppercase; position: relative; font-style: normal; font-variant-ligatures: normal; font-variant-caps: normal; letter-spacing: normal; orphans: 2; text-align: center; text-indent: 0px; widows: 2; word-spacing: 0px; -webkit-text-stroke-width: 0px; background-color: rgb(232, 232, 232); text-decoration-thickness: initial; text-decoration-style: initial; text-decoration-color: initial;&quot;&gt;PLAN &amp;amp; PRICING&lt;/h2&gt;&#xa;&#xa;" style="text;html=1;strokeColor=none;fillColor=none;align=center;verticalAlign=middle;whiteSpace=wrap;rounded=0;" vertex="1" parent="1">
          <mxGeometry x="295" y="290" width="226" height="30" as="geometry" />
        </mxCell>
        <mxCell id="wLrjcTH-we5CReHm95ZG-2" value="List" style="swimlane;fontStyle=0;childLayout=stackLayout;horizontal=1;startSize=30;horizontalStack=0;resizeParent=1;resizeParentMax=0;resizeLast=0;collapsible=1;marginBottom=0;whiteSpace=wrap;html=1;" vertex="1" parent="1">
          <mxGeometry x="77" y="330" width="140" height="120" as="geometry" />
        </mxCell>
        <mxCell id="wLrjcTH-we5CReHm95ZG-3" value="Item 1" style="text;strokeColor=none;fillColor=none;align=left;verticalAlign=middle;spacingLeft=4;spacingRight=4;overflow=hidden;points=[[0,0.5],[1,0.5]];portConstraint=eastwest;rotatable=0;whiteSpace=wrap;html=1;" vertex="1" parent="wLrjcTH-we5CReHm95ZG-2">
          <mxGeometry y="30" width="140" height="30" as="geometry" />
        </mxCell>
        <mxCell id="wLrjcTH-we5CReHm95ZG-4" value="Item 2" style="text;strokeColor=none;fillColor=none;align=left;verticalAlign=middle;spacingLeft=4;spacingRight=4;overflow=hidden;points=[[0,0.5],[1,0.5]];portConstraint=eastwest;rotatable=0;whiteSpace=wrap;html=1;" vertex="1" parent="wLrjcTH-we5CReHm95ZG-2">
          <mxGeometry y="60" width="140" height="30" as="geometry" />
        </mxCell>
        <mxCell id="wLrjcTH-we5CReHm95ZG-5" value="Item 3" style="text;strokeColor=none;fillColor=none;align=left;verticalAlign=middle;spacingLeft=4;spacingRight=4;overflow=hidden;points=[[0,0.5],[1,0.5]];portConstraint=eastwest;rotatable=0;whiteSpace=wrap;html=1;" vertex="1" parent="wLrjcTH-we5CReHm95ZG-2">
          <mxGeometry y="90" width="140" height="30" as="geometry" />
        </mxCell>
        <mxCell id="wLrjcTH-we5CReHm95ZG-6" value="List" style="swimlane;fontStyle=0;childLayout=stackLayout;horizontal=1;startSize=30;horizontalStack=0;resizeParent=1;resizeParentMax=0;resizeLast=0;collapsible=1;marginBottom=0;whiteSpace=wrap;html=1;" vertex="1" parent="1">
          <mxGeometry x="327" y="330" width="140" height="120" as="geometry" />
        </mxCell>
        <mxCell id="wLrjcTH-we5CReHm95ZG-7" value="Item 1" style="text;strokeColor=none;fillColor=none;align=left;verticalAlign=middle;spacingLeft=4;spacingRight=4;overflow=hidden;points=[[0,0.5],[1,0.5]];portConstraint=eastwest;rotatable=0;whiteSpace=wrap;html=1;" vertex="1" parent="wLrjcTH-we5CReHm95ZG-6">
          <mxGeometry y="30" width="140" height="30" as="geometry" />
        </mxCell>
        <mxCell id="wLrjcTH-we5CReHm95ZG-8" value="Item 2" style="text;strokeColor=none;fillColor=none;align=left;verticalAlign=middle;spacingLeft=4;spacingRight=4;overflow=hidden;points=[[0,0.5],[1,0.5]];portConstraint=eastwest;rotatable=0;whiteSpace=wrap;html=1;" vertex="1" parent="wLrjcTH-we5CReHm95ZG-6">
          <mxGeometry y="60" width="140" height="30" as="geometry" />
        </mxCell>
        <mxCell id="wLrjcTH-we5CReHm95ZG-9" value="Item 3" style="text;strokeColor=none;fillColor=none;align=left;verticalAlign=middle;spacingLeft=4;spacingRight=4;overflow=hidden;points=[[0,0.5],[1,0.5]];portConstraint=eastwest;rotatable=0;whiteSpace=wrap;html=1;" vertex="1" parent="wLrjcTH-we5CReHm95ZG-6">
          <mxGeometry y="90" width="140" height="30" as="geometry" />
        </mxCell>
        <mxCell id="wLrjcTH-we5CReHm95ZG-10" value="List" style="swimlane;fontStyle=0;childLayout=stackLayout;horizontal=1;startSize=30;horizontalStack=0;resizeParent=1;resizeParentMax=0;resizeLast=0;collapsible=1;marginBottom=0;whiteSpace=wrap;html=1;" vertex="1" parent="1">
          <mxGeometry x="557" y="330" width="140" height="120" as="geometry" />
        </mxCell>
        <mxCell id="wLrjcTH-we5CReHm95ZG-11" value="Item 1" style="text;strokeColor=none;fillColor=none;align=left;verticalAlign=middle;spacingLeft=4;spacingRight=4;overflow=hidden;points=[[0,0.5],[1,0.5]];portConstraint=eastwest;rotatable=0;whiteSpace=wrap;html=1;" vertex="1" parent="wLrjcTH-we5CReHm95ZG-10">
          <mxGeometry y="30" width="140" height="30" as="geometry" />
        </mxCell>
        <mxCell id="wLrjcTH-we5CReHm95ZG-12" value="Item 2" style="text;strokeColor=none;fillColor=none;align=left;verticalAlign=middle;spacingLeft=4;spacingRight=4;overflow=hidden;points=[[0,0.5],[1,0.5]];portConstraint=eastwest;rotatable=0;whiteSpace=wrap;html=1;" vertex="1" parent="wLrjcTH-we5CReHm95ZG-10">
          <mxGeometry y="60" width="140" height="30" as="geometry" />
        </mxCell>
        <mxCell id="wLrjcTH-we5CReHm95ZG-13" value="Item 3" style="text;strokeColor=none;fillColor=none;align=left;verticalAlign=middle;spacingLeft=4;spacingRight=4;overflow=hidden;points=[[0,0.5],[1,0.5]];portConstraint=eastwest;rotatable=0;whiteSpace=wrap;html=1;" vertex="1" parent="wLrjcTH-we5CReHm95ZG-10">
          <mxGeometry y="90" width="140" height="30" as="geometry" />
        </mxCell>
        <mxCell id="wLrjcTH-we5CReHm95ZG-14" value="&lt;font style=&quot;font-size: 72px;&quot;&gt;Discount countdown&lt;/font&gt;" style="rounded=0;whiteSpace=wrap;html=1;" vertex="1" parent="1">
          <mxGeometry x="7" y="470" width="820" height="195" as="geometry" />
        </mxCell>
        <mxCell id="tgaourIlZgQb-lU3N7gH-1" value="Title" style="text;strokeColor=none;fillColor=none;html=1;fontSize=24;fontStyle=1;verticalAlign=middle;align=center;" vertex="1" parent="1">
          <mxGeometry x="151" y="670" width="100" height="40" as="geometry" />
        </mxCell>
        <mxCell id="tgaourIlZgQb-lU3N7gH-2" value="Title" style="text;strokeColor=none;fillColor=none;html=1;fontSize=24;fontStyle=1;verticalAlign=middle;align=center;" vertex="1" parent="1">
          <mxGeometry x="631" y="670" width="100" height="40" as="geometry" />
        </mxCell>
        <mxCell id="tgaourIlZgQb-lU3N7gH-3" value="Title" style="text;strokeColor=none;fillColor=none;html=1;fontSize=24;fontStyle=1;verticalAlign=middle;align=center;" vertex="1" parent="1">
          <mxGeometry x="461" y="670" width="100" height="40" as="geometry" />
        </mxCell>
        <mxCell id="tgaourIlZgQb-lU3N7gH-4" value="Title" style="text;strokeColor=none;fillColor=none;html=1;fontSize=24;fontStyle=1;verticalAlign=middle;align=center;" vertex="1" parent="1">
          <mxGeometry x="311" y="670" width="100" height="40" as="geometry" />
        </mxCell>
        <mxCell id="tgaourIlZgQb-lU3N7gH-5" value="about" style="text;strokeColor=none;fillColor=none;html=1;fontSize=24;fontStyle=1;verticalAlign=middle;align=center;" vertex="1" parent="1">
          <mxGeometry x="1" y="710" width="100" height="40" as="geometry" />
        </mxCell>
        <mxCell id="tgaourIlZgQb-lU3N7gH-6" value="&lt;ul&gt;&lt;li&gt;Value 1&lt;/li&gt;&lt;li&gt;Value 2&lt;/li&gt;&lt;li&gt;Value 3&lt;/li&gt;&lt;/ul&gt;" style="text;strokeColor=none;fillColor=none;html=1;whiteSpace=wrap;verticalAlign=middle;overflow=hidden;" vertex="1" parent="1">
          <mxGeometry x="151" y="700" width="100" height="80" as="geometry" />
        </mxCell>
        <mxCell id="tgaourIlZgQb-lU3N7gH-7" value="&lt;ul&gt;&lt;li&gt;Value 1&lt;/li&gt;&lt;li&gt;Value 2&lt;/li&gt;&lt;li&gt;Value 3&lt;/li&gt;&lt;/ul&gt;" style="text;strokeColor=none;fillColor=none;html=1;whiteSpace=wrap;verticalAlign=middle;overflow=hidden;" vertex="1" parent="1">
          <mxGeometry x="311" y="700" width="100" height="80" as="geometry" />
        </mxCell>
        <mxCell id="tgaourIlZgQb-lU3N7gH-8" value="&lt;ul&gt;&lt;li&gt;Value 1&lt;/li&gt;&lt;li&gt;Value 2&lt;/li&gt;&lt;li&gt;Value 3&lt;/li&gt;&lt;/ul&gt;" style="text;strokeColor=none;fillColor=none;html=1;whiteSpace=wrap;verticalAlign=middle;overflow=hidden;" vertex="1" parent="1">
          <mxGeometry x="461" y="700" width="100" height="80" as="geometry" />
        </mxCell>
        <mxCell id="tgaourIlZgQb-lU3N7gH-9" value="&lt;ul&gt;&lt;li&gt;Value 1&lt;/li&gt;&lt;li&gt;Value 2&lt;/li&gt;&lt;li&gt;Value 3&lt;/li&gt;&lt;/ul&gt;" style="text;strokeColor=none;fillColor=none;html=1;whiteSpace=wrap;verticalAlign=middle;overflow=hidden;" vertex="1" parent="1">
          <mxGeometry x="631" y="700" width="100" height="80" as="geometry" />
        </mxCell>
        <mxCell id="tgaourIlZgQb-lU3N7gH-10" value="&#xa;&lt;span style=&quot;color: rgb(130, 130, 130); font-family: &amp;quot;Source Sans Pro&amp;quot;, Arial, sans-serif; font-size: 15px; font-style: normal; font-variant-ligatures: normal; font-variant-caps: normal; font-weight: 400; letter-spacing: normal; orphans: 2; text-align: center; text-indent: 0px; text-transform: none; widows: 2; word-spacing: 0px; -webkit-text-stroke-width: 0px; background-color: rgb(255, 255, 255); text-decoration-thickness: initial; text-decoration-style: initial; text-decoration-color: initial; float: none; display: inline !important;&quot;&gt;© 2024 All rights reserved by Jojo/Zhou Jianlong/IT2&lt;/span&gt;&#xa;&#xa;" style="rounded=0;whiteSpace=wrap;html=1;" vertex="1" parent="1">
          <mxGeometry x="7" y="850" width="820" height="40" as="geometry" />
        </mxCell>
      </root>
    </mxGraphModel>
  </diagram>
  <diagram id="l9GRoLNPShuoYTw5u_yT" name="blog">
    <mxGraphModel dx="1434" dy="836" grid="1" gridSize="10" guides="1" tooltips="1" connect="1" arrows="1" fold="1" page="1" pageScale="1" pageWidth="827" pageHeight="1169" math="0" shadow="0">
      <root>
        <mxCell id="0" />
        <mxCell id="1" parent="0" />
        <mxCell id="muvMRG2gNwSSCb5bzpSd-1" value="" style="rounded=0;whiteSpace=wrap;html=1;" vertex="1" parent="1">
          <mxGeometry x="690" y="20" width="60" height="40" as="geometry" />
        </mxCell>
        <mxCell id="muvMRG2gNwSSCb5bzpSd-2" value="" style="rounded=0;whiteSpace=wrap;html=1;" vertex="1" parent="1">
          <mxGeometry x="620" y="20" width="60" height="40" as="geometry" />
        </mxCell>
        <mxCell id="muvMRG2gNwSSCb5bzpSd-3" value="" style="rounded=0;whiteSpace=wrap;html=1;" vertex="1" parent="1">
          <mxGeometry x="550" y="20" width="60" height="40" as="geometry" />
        </mxCell>
        <mxCell id="muvMRG2gNwSSCb5bzpSd-4" value="" style="rounded=0;whiteSpace=wrap;html=1;" vertex="1" parent="1">
          <mxGeometry x="480" y="20" width="60" height="40" as="geometry" />
        </mxCell>
        <mxCell id="muvMRG2gNwSSCb5bzpSd-5" value="" style="rounded=0;whiteSpace=wrap;html=1;" vertex="1" parent="1">
          <mxGeometry x="410" y="20" width="60" height="40" as="geometry" />
        </mxCell>
        <mxCell id="muvMRG2gNwSSCb5bzpSd-6" value="" style="rounded=0;whiteSpace=wrap;html=1;" vertex="1" parent="1">
          <mxGeometry x="340" y="20" width="60" height="40" as="geometry" />
        </mxCell>
        <mxCell id="muvMRG2gNwSSCb5bzpSd-7" value="" style="rounded=0;whiteSpace=wrap;html=1;" vertex="1" parent="1">
          <mxGeometry x="270" y="20" width="60" height="40" as="geometry" />
        </mxCell>
        <mxCell id="muvMRG2gNwSSCb5bzpSd-8" value="courses" style="text;html=1;strokeColor=none;fillColor=none;align=center;verticalAlign=middle;whiteSpace=wrap;rounded=0;" vertex="1" parent="1">
          <mxGeometry x="340" y="25" width="60" height="30" as="geometry" />
        </mxCell>
        <mxCell id="muvMRG2gNwSSCb5bzpSd-9" value="contact" style="text;html=1;strokeColor=none;fillColor=none;align=center;verticalAlign=middle;whiteSpace=wrap;rounded=0;" vertex="1" parent="1">
          <mxGeometry x="690" y="25" width="60" height="30" as="geometry" />
        </mxCell>
        <mxCell id="muvMRG2gNwSSCb5bzpSd-10" value="blog" style="text;html=1;strokeColor=none;fillColor=none;align=center;verticalAlign=middle;whiteSpace=wrap;rounded=0;" vertex="1" parent="1">
          <mxGeometry x="620" y="25" width="60" height="30" as="geometry" />
        </mxCell>
        <mxCell id="muvMRG2gNwSSCb5bzpSd-11" value="home" style="text;html=1;strokeColor=none;fillColor=none;align=center;verticalAlign=middle;whiteSpace=wrap;rounded=0;" vertex="1" parent="1">
          <mxGeometry x="270" y="25" width="60" height="30" as="geometry" />
        </mxCell>
        <mxCell id="muvMRG2gNwSSCb5bzpSd-12" value="pricing" style="text;html=1;strokeColor=none;fillColor=none;align=center;verticalAlign=middle;whiteSpace=wrap;rounded=0;" vertex="1" parent="1">
          <mxGeometry x="550" y="25" width="60" height="30" as="geometry" />
        </mxCell>
        <mxCell id="muvMRG2gNwSSCb5bzpSd-13" value="about" style="text;html=1;strokeColor=none;fillColor=none;align=center;verticalAlign=middle;whiteSpace=wrap;rounded=0;" vertex="1" parent="1">
          <mxGeometry x="480" y="25" width="60" height="30" as="geometry" />
        </mxCell>
        <mxCell id="muvMRG2gNwSSCb5bzpSd-14" value="teacher" style="text;html=1;strokeColor=none;fillColor=none;align=center;verticalAlign=middle;whiteSpace=wrap;rounded=0;" vertex="1" parent="1">
          <mxGeometry x="410" y="25" width="60" height="30" as="geometry" />
        </mxCell>
        <mxCell id="muvMRG2gNwSSCb5bzpSd-15" value="" style="endArrow=none;html=1;rounded=0;" edge="1" parent="1">
          <mxGeometry width="50" height="50" relative="1" as="geometry">
            <mxPoint x="4" y="19.5" as="sourcePoint" />
            <mxPoint x="824" y="19.5" as="targetPoint" />
          </mxGeometry>
        </mxCell>
        <mxCell id="muvMRG2gNwSSCb5bzpSd-16" value="logo" style="rounded=0;whiteSpace=wrap;html=1;" vertex="1" parent="1">
          <mxGeometry x="70" y="20" width="120" height="40" as="geometry" />
        </mxCell>
        <mxCell id="muvMRG2gNwSSCb5bzpSd-17" value="email" style="rounded=0;whiteSpace=wrap;html=1;" vertex="1" parent="1">
          <mxGeometry x="90" width="110" height="20" as="geometry" />
        </mxCell>
        <mxCell id="muvMRG2gNwSSCb5bzpSd-18" value="phone" style="rounded=0;whiteSpace=wrap;html=1;" vertex="1" parent="1">
          <mxGeometry x="630" width="110" height="20" as="geometry" />
        </mxCell>
        <mxCell id="muvMRG2gNwSSCb5bzpSd-19" value="&lt;font style=&quot;font-size: 72px;&quot;&gt;welcome&lt;/font&gt;" style="rounded=0;whiteSpace=wrap;html=1;" vertex="1" parent="1">
          <mxGeometry y="60" width="820" height="200" as="geometry" />
        </mxCell>
        <mxCell id="as_EMbwokO3LeP4Kr7RZ-1" value="&lt;h2 style=&quot;box-sizing: border-box; font-family: &amp;quot;Roboto Slab&amp;quot;, serif; font-weight: 400; line-height: 1.5; color: rgb(0, 0, 0); margin: 0px 0px 20px; font-size: 24px; text-transform: uppercase; position: relative; font-style: normal; font-variant-ligatures: normal; font-variant-caps: normal; letter-spacing: normal; orphans: 2; text-align: center; text-indent: 0px; widows: 2; word-spacing: 0px; -webkit-text-stroke-width: 0px; background-color: rgb(255, 255, 255); text-decoration-thickness: initial; text-decoration-style: initial; text-decoration-color: initial;&quot;&gt;BLOG &amp;amp; EVENTS&lt;/h2&gt;" style="text;whiteSpace=wrap;html=1;" vertex="1" parent="1">
          <mxGeometry x="307.5" y="270" width="190" height="80" as="geometry" />
        </mxCell>
        <mxCell id="as_EMbwokO3LeP4Kr7RZ-2" value="" style="ellipse;whiteSpace=wrap;html=1;aspect=fixed;" vertex="1" parent="1">
          <mxGeometry x="537.5" y="360" width="80" height="80" as="geometry" />
        </mxCell>
        <mxCell id="as_EMbwokO3LeP4Kr7RZ-3" value="" style="ellipse;whiteSpace=wrap;html=1;aspect=fixed;" vertex="1" parent="1">
          <mxGeometry x="267.5" y="360" width="80" height="80" as="geometry" />
        </mxCell>
        <mxCell id="as_EMbwokO3LeP4Kr7RZ-4" value="" style="ellipse;whiteSpace=wrap;html=1;aspect=fixed;" vertex="1" parent="1">
          <mxGeometry x="7.5" y="360" width="80" height="80" as="geometry" />
        </mxCell>
        <mxCell id="as_EMbwokO3LeP4Kr7RZ-5" value="&lt;h1&gt;Heading&lt;/h1&gt;&lt;p&gt;content&lt;/p&gt;" style="text;html=1;strokeColor=none;fillColor=none;spacing=5;spacingTop=-20;whiteSpace=wrap;overflow=hidden;rounded=0;" vertex="1" parent="1">
          <mxGeometry x="87.5" y="360" width="190" height="120" as="geometry" />
        </mxCell>
        <mxCell id="as_EMbwokO3LeP4Kr7RZ-6" value="&lt;h1&gt;Heading&lt;/h1&gt;&lt;p&gt;content&lt;br&gt;&lt;/p&gt;" style="text;html=1;strokeColor=none;fillColor=none;spacing=5;spacingTop=-20;whiteSpace=wrap;overflow=hidden;rounded=0;" vertex="1" parent="1">
          <mxGeometry x="362.5" y="360" width="190" height="120" as="geometry" />
        </mxCell>
        <mxCell id="as_EMbwokO3LeP4Kr7RZ-7" value="&lt;h1&gt;Heading&lt;/h1&gt;&lt;p&gt;content&lt;br&gt;&lt;/p&gt;" style="text;html=1;strokeColor=none;fillColor=none;spacing=5;spacingTop=-20;whiteSpace=wrap;overflow=hidden;rounded=0;" vertex="1" parent="1">
          <mxGeometry x="622.5" y="360" width="190" height="120" as="geometry" />
        </mxCell>
        <mxCell id="as_EMbwokO3LeP4Kr7RZ-8" value="" style="rounded=0;whiteSpace=wrap;html=1;" vertex="1" parent="1">
          <mxGeometry x="12.5" y="450" width="205" height="230" as="geometry" />
        </mxCell>
        <mxCell id="as_EMbwokO3LeP4Kr7RZ-9" value="" style="rounded=0;whiteSpace=wrap;html=1;" vertex="1" parent="1">
          <mxGeometry x="602.5" y="450" width="205" height="230" as="geometry" />
        </mxCell>
        <mxCell id="as_EMbwokO3LeP4Kr7RZ-10" value="" style="rounded=0;whiteSpace=wrap;html=1;" vertex="1" parent="1">
          <mxGeometry x="322.5" y="450" width="205" height="230" as="geometry" />
        </mxCell>
        <mxCell id="as_EMbwokO3LeP4Kr7RZ-11" value="" style="endArrow=none;html=1;rounded=0;exitX=0;exitY=0.5;exitDx=0;exitDy=0;entryX=1;entryY=0.5;entryDx=0;entryDy=0;" edge="1" parent="1" source="as_EMbwokO3LeP4Kr7RZ-8" target="as_EMbwokO3LeP4Kr7RZ-8">
          <mxGeometry width="50" height="50" relative="1" as="geometry">
            <mxPoint x="557.5" y="400" as="sourcePoint" />
            <mxPoint x="607.5" y="350" as="targetPoint" />
          </mxGeometry>
        </mxCell>
        <mxCell id="as_EMbwokO3LeP4Kr7RZ-12" value="" style="endArrow=none;html=1;rounded=0;exitX=0;exitY=0.5;exitDx=0;exitDy=0;entryX=1;entryY=0.5;entryDx=0;entryDy=0;" edge="1" parent="1">
          <mxGeometry width="50" height="50" relative="1" as="geometry">
            <mxPoint x="602.5" y="564.5" as="sourcePoint" />
            <mxPoint x="807.5" y="564.5" as="targetPoint" />
          </mxGeometry>
        </mxCell>
        <mxCell id="as_EMbwokO3LeP4Kr7RZ-13" value="" style="endArrow=none;html=1;rounded=0;exitX=0;exitY=0.5;exitDx=0;exitDy=0;entryX=1;entryY=0.5;entryDx=0;entryDy=0;" edge="1" parent="1">
          <mxGeometry width="50" height="50" relative="1" as="geometry">
            <mxPoint x="322.5" y="564.5" as="sourcePoint" />
            <mxPoint x="527.5" y="564.5" as="targetPoint" />
          </mxGeometry>
        </mxCell>
        <mxCell id="as_EMbwokO3LeP4Kr7RZ-14" value="&lt;font style=&quot;font-size: 24px;&quot;&gt;img&lt;/font&gt;" style="text;html=1;strokeColor=none;fillColor=none;align=center;verticalAlign=middle;whiteSpace=wrap;rounded=0;" vertex="1" parent="1">
          <mxGeometry x="85" y="490" width="60" height="30" as="geometry" />
        </mxCell>
        <mxCell id="as_EMbwokO3LeP4Kr7RZ-15" value="&lt;font style=&quot;font-size: 24px;&quot;&gt;img&lt;/font&gt;" style="text;html=1;strokeColor=none;fillColor=none;align=center;verticalAlign=middle;whiteSpace=wrap;rounded=0;" vertex="1" parent="1">
          <mxGeometry x="677.5" y="490" width="60" height="30" as="geometry" />
        </mxCell>
        <mxCell id="as_EMbwokO3LeP4Kr7RZ-16" value="&lt;font style=&quot;font-size: 24px;&quot;&gt;img&lt;/font&gt;" style="text;html=1;strokeColor=none;fillColor=none;align=center;verticalAlign=middle;whiteSpace=wrap;rounded=0;" vertex="1" parent="1">
          <mxGeometry x="395" y="490" width="60" height="30" as="geometry" />
        </mxCell>
        <mxCell id="as_EMbwokO3LeP4Kr7RZ-17" value="&lt;font style=&quot;font-size: 24px;&quot;&gt;Text&lt;/font&gt;" style="text;html=1;strokeColor=none;fillColor=none;align=center;verticalAlign=middle;whiteSpace=wrap;rounded=0;" vertex="1" parent="1">
          <mxGeometry x="75" y="590" width="70" height="45" as="geometry" />
        </mxCell>
        <mxCell id="as_EMbwokO3LeP4Kr7RZ-18" value="&lt;font style=&quot;font-size: 24px;&quot;&gt;Text&lt;/font&gt;" style="text;html=1;strokeColor=none;fillColor=none;align=center;verticalAlign=middle;whiteSpace=wrap;rounded=0;" vertex="1" parent="1">
          <mxGeometry x="672.5" y="590" width="70" height="45" as="geometry" />
        </mxCell>
        <mxCell id="as_EMbwokO3LeP4Kr7RZ-19" value="&lt;font style=&quot;font-size: 24px;&quot;&gt;Text&lt;/font&gt;" style="text;html=1;strokeColor=none;fillColor=none;align=center;verticalAlign=middle;whiteSpace=wrap;rounded=0;" vertex="1" parent="1">
          <mxGeometry x="390" y="590" width="70" height="45" as="geometry" />
        </mxCell>
        <mxCell id="OzvM_zNFzSZLO32YwdKZ-1" value="&lt;font style=&quot;font-size: 72px;&quot;&gt;Discount countdown&lt;/font&gt;" style="rounded=0;whiteSpace=wrap;html=1;" vertex="1" parent="1">
          <mxGeometry x="7" y="730" width="820" height="195" as="geometry" />
        </mxCell>
        <mxCell id="OzvM_zNFzSZLO32YwdKZ-2" value="Title" style="text;strokeColor=none;fillColor=none;html=1;fontSize=24;fontStyle=1;verticalAlign=middle;align=center;" vertex="1" parent="1">
          <mxGeometry x="151" y="930" width="100" height="40" as="geometry" />
        </mxCell>
        <mxCell id="OzvM_zNFzSZLO32YwdKZ-3" value="Title" style="text;strokeColor=none;fillColor=none;html=1;fontSize=24;fontStyle=1;verticalAlign=middle;align=center;" vertex="1" parent="1">
          <mxGeometry x="631" y="930" width="100" height="40" as="geometry" />
        </mxCell>
        <mxCell id="OzvM_zNFzSZLO32YwdKZ-4" value="Title" style="text;strokeColor=none;fillColor=none;html=1;fontSize=24;fontStyle=1;verticalAlign=middle;align=center;" vertex="1" parent="1">
          <mxGeometry x="461" y="930" width="100" height="40" as="geometry" />
        </mxCell>
        <mxCell id="OzvM_zNFzSZLO32YwdKZ-5" value="Title" style="text;strokeColor=none;fillColor=none;html=1;fontSize=24;fontStyle=1;verticalAlign=middle;align=center;" vertex="1" parent="1">
          <mxGeometry x="311" y="930" width="100" height="40" as="geometry" />
        </mxCell>
        <mxCell id="OzvM_zNFzSZLO32YwdKZ-6" value="about" style="text;strokeColor=none;fillColor=none;html=1;fontSize=24;fontStyle=1;verticalAlign=middle;align=center;" vertex="1" parent="1">
          <mxGeometry x="1" y="970" width="100" height="40" as="geometry" />
        </mxCell>
        <mxCell id="OzvM_zNFzSZLO32YwdKZ-7" value="&lt;ul&gt;&lt;li&gt;Value 1&lt;/li&gt;&lt;li&gt;Value 2&lt;/li&gt;&lt;li&gt;Value 3&lt;/li&gt;&lt;/ul&gt;" style="text;strokeColor=none;fillColor=none;html=1;whiteSpace=wrap;verticalAlign=middle;overflow=hidden;" vertex="1" parent="1">
          <mxGeometry x="151" y="960" width="100" height="80" as="geometry" />
        </mxCell>
        <mxCell id="OzvM_zNFzSZLO32YwdKZ-8" value="&lt;ul&gt;&lt;li&gt;Value 1&lt;/li&gt;&lt;li&gt;Value 2&lt;/li&gt;&lt;li&gt;Value 3&lt;/li&gt;&lt;/ul&gt;" style="text;strokeColor=none;fillColor=none;html=1;whiteSpace=wrap;verticalAlign=middle;overflow=hidden;" vertex="1" parent="1">
          <mxGeometry x="311" y="960" width="100" height="80" as="geometry" />
        </mxCell>
        <mxCell id="OzvM_zNFzSZLO32YwdKZ-9" value="&lt;ul&gt;&lt;li&gt;Value 1&lt;/li&gt;&lt;li&gt;Value 2&lt;/li&gt;&lt;li&gt;Value 3&lt;/li&gt;&lt;/ul&gt;" style="text;strokeColor=none;fillColor=none;html=1;whiteSpace=wrap;verticalAlign=middle;overflow=hidden;" vertex="1" parent="1">
          <mxGeometry x="461" y="960" width="100" height="80" as="geometry" />
        </mxCell>
        <mxCell id="OzvM_zNFzSZLO32YwdKZ-10" value="&lt;ul&gt;&lt;li&gt;Value 1&lt;/li&gt;&lt;li&gt;Value 2&lt;/li&gt;&lt;li&gt;Value 3&lt;/li&gt;&lt;/ul&gt;" style="text;strokeColor=none;fillColor=none;html=1;whiteSpace=wrap;verticalAlign=middle;overflow=hidden;" vertex="1" parent="1">
          <mxGeometry x="631" y="960" width="100" height="80" as="geometry" />
        </mxCell>
        <mxCell id="OzvM_zNFzSZLO32YwdKZ-11" value="&#xa;&lt;span style=&quot;color: rgb(130, 130, 130); font-family: &amp;quot;Source Sans Pro&amp;quot;, Arial, sans-serif; font-size: 15px; font-style: normal; font-variant-ligatures: normal; font-variant-caps: normal; font-weight: 400; letter-spacing: normal; orphans: 2; text-align: center; text-indent: 0px; text-transform: none; widows: 2; word-spacing: 0px; -webkit-text-stroke-width: 0px; background-color: rgb(255, 255, 255); text-decoration-thickness: initial; text-decoration-style: initial; text-decoration-color: initial; float: none; display: inline !important;&quot;&gt;© 2024 All rights reserved by Jojo/Zhou Jianlong/IT2&lt;/span&gt;&#xa;&#xa;" style="rounded=0;whiteSpace=wrap;html=1;" vertex="1" parent="1">
          <mxGeometry x="7" y="1110" width="820" height="40" as="geometry" />
        </mxCell>
      </root>
    </mxGraphModel>
  </diagram>
  <diagram id="cwDh-a14s7DDt7odvzXh" name="contact">
    <mxGraphModel dx="1434" dy="836" grid="1" gridSize="10" guides="1" tooltips="1" connect="1" arrows="1" fold="1" page="1" pageScale="1" pageWidth="827" pageHeight="1169" math="0" shadow="0">
      <root>
        <mxCell id="0" />
        <mxCell id="1" parent="0" />
        <mxCell id="wAgzTLy_VSuQmkiOVKL2-1" value="" style="rounded=0;whiteSpace=wrap;html=1;" vertex="1" parent="1">
          <mxGeometry x="690" y="20" width="60" height="40" as="geometry" />
        </mxCell>
        <mxCell id="wAgzTLy_VSuQmkiOVKL2-2" value="" style="rounded=0;whiteSpace=wrap;html=1;" vertex="1" parent="1">
          <mxGeometry x="620" y="20" width="60" height="40" as="geometry" />
        </mxCell>
        <mxCell id="wAgzTLy_VSuQmkiOVKL2-3" value="" style="rounded=0;whiteSpace=wrap;html=1;" vertex="1" parent="1">
          <mxGeometry x="550" y="20" width="60" height="40" as="geometry" />
        </mxCell>
        <mxCell id="wAgzTLy_VSuQmkiOVKL2-4" value="" style="rounded=0;whiteSpace=wrap;html=1;" vertex="1" parent="1">
          <mxGeometry x="480" y="20" width="60" height="40" as="geometry" />
        </mxCell>
        <mxCell id="wAgzTLy_VSuQmkiOVKL2-5" value="" style="rounded=0;whiteSpace=wrap;html=1;" vertex="1" parent="1">
          <mxGeometry x="410" y="20" width="60" height="40" as="geometry" />
        </mxCell>
        <mxCell id="wAgzTLy_VSuQmkiOVKL2-6" value="" style="rounded=0;whiteSpace=wrap;html=1;" vertex="1" parent="1">
          <mxGeometry x="340" y="20" width="60" height="40" as="geometry" />
        </mxCell>
        <mxCell id="wAgzTLy_VSuQmkiOVKL2-7" value="" style="rounded=0;whiteSpace=wrap;html=1;" vertex="1" parent="1">
          <mxGeometry x="270" y="20" width="60" height="40" as="geometry" />
        </mxCell>
        <mxCell id="wAgzTLy_VSuQmkiOVKL2-8" value="courses" style="text;html=1;strokeColor=none;fillColor=none;align=center;verticalAlign=middle;whiteSpace=wrap;rounded=0;" vertex="1" parent="1">
          <mxGeometry x="340" y="25" width="60" height="30" as="geometry" />
        </mxCell>
        <mxCell id="wAgzTLy_VSuQmkiOVKL2-9" value="contact" style="text;html=1;strokeColor=none;fillColor=none;align=center;verticalAlign=middle;whiteSpace=wrap;rounded=0;" vertex="1" parent="1">
          <mxGeometry x="690" y="25" width="60" height="30" as="geometry" />
        </mxCell>
        <mxCell id="wAgzTLy_VSuQmkiOVKL2-10" value="blog" style="text;html=1;strokeColor=none;fillColor=none;align=center;verticalAlign=middle;whiteSpace=wrap;rounded=0;" vertex="1" parent="1">
          <mxGeometry x="620" y="25" width="60" height="30" as="geometry" />
        </mxCell>
        <mxCell id="wAgzTLy_VSuQmkiOVKL2-11" value="home" style="text;html=1;strokeColor=none;fillColor=none;align=center;verticalAlign=middle;whiteSpace=wrap;rounded=0;" vertex="1" parent="1">
          <mxGeometry x="270" y="25" width="60" height="30" as="geometry" />
        </mxCell>
        <mxCell id="wAgzTLy_VSuQmkiOVKL2-12" value="pricing" style="text;html=1;strokeColor=none;fillColor=none;align=center;verticalAlign=middle;whiteSpace=wrap;rounded=0;" vertex="1" parent="1">
          <mxGeometry x="550" y="25" width="60" height="30" as="geometry" />
        </mxCell>
        <mxCell id="wAgzTLy_VSuQmkiOVKL2-13" value="about" style="text;html=1;strokeColor=none;fillColor=none;align=center;verticalAlign=middle;whiteSpace=wrap;rounded=0;" vertex="1" parent="1">
          <mxGeometry x="480" y="25" width="60" height="30" as="geometry" />
        </mxCell>
        <mxCell id="wAgzTLy_VSuQmkiOVKL2-14" value="teacher" style="text;html=1;strokeColor=none;fillColor=none;align=center;verticalAlign=middle;whiteSpace=wrap;rounded=0;" vertex="1" parent="1">
          <mxGeometry x="410" y="25" width="60" height="30" as="geometry" />
        </mxCell>
        <mxCell id="wAgzTLy_VSuQmkiOVKL2-15" value="" style="endArrow=none;html=1;rounded=0;" edge="1" parent="1">
          <mxGeometry width="50" height="50" relative="1" as="geometry">
            <mxPoint x="4" y="19.5" as="sourcePoint" />
            <mxPoint x="824" y="19.5" as="targetPoint" />
          </mxGeometry>
        </mxCell>
        <mxCell id="wAgzTLy_VSuQmkiOVKL2-16" value="logo" style="rounded=0;whiteSpace=wrap;html=1;" vertex="1" parent="1">
          <mxGeometry x="70" y="20" width="120" height="40" as="geometry" />
        </mxCell>
        <mxCell id="wAgzTLy_VSuQmkiOVKL2-17" value="email" style="rounded=0;whiteSpace=wrap;html=1;" vertex="1" parent="1">
          <mxGeometry x="90" width="110" height="20" as="geometry" />
        </mxCell>
        <mxCell id="wAgzTLy_VSuQmkiOVKL2-18" value="phone" style="rounded=0;whiteSpace=wrap;html=1;" vertex="1" parent="1">
          <mxGeometry x="630" width="110" height="20" as="geometry" />
        </mxCell>
        <mxCell id="wAgzTLy_VSuQmkiOVKL2-19" value="&lt;font style=&quot;font-size: 72px;&quot;&gt;welcome&lt;/font&gt;" style="rounded=0;whiteSpace=wrap;html=1;" vertex="1" parent="1">
          <mxGeometry y="60" width="820" height="200" as="geometry" />
        </mxCell>
        <mxCell id="gc81VmoAbhz3FDv9WSGr-1" value="&lt;h3 class=&quot;text-center slideanim&quot; style=&quot;box-sizing: border-box; font-family: &amp;quot;Roboto Slab&amp;quot;, serif; font-weight: 400; line-height: 1.1; color: rgb(0, 0, 0); margin: 0px 0px 20px; font-size: 24px; text-align: center; font-style: normal; font-variant-ligatures: normal; font-variant-caps: normal; letter-spacing: normal; orphans: 2; text-indent: 0px; text-transform: none; widows: 2; word-spacing: 0px; -webkit-text-stroke-width: 0px; background-color: rgb(255, 255, 255); text-decoration-thickness: initial; text-decoration-style: initial; text-decoration-color: initial;&quot;&gt;Contact Us&lt;/h3&gt;" style="text;whiteSpace=wrap;html=1;" vertex="1" parent="1">
          <mxGeometry x="320" y="270" width="150" height="70" as="geometry" />
        </mxCell>
        <mxCell id="gc81VmoAbhz3FDv9WSGr-4" value="phone" style="text;html=1;strokeColor=none;fillColor=none;align=center;verticalAlign=middle;whiteSpace=wrap;rounded=0;" vertex="1" parent="1">
          <mxGeometry x="112.5" y="320" width="60" height="30" as="geometry" />
        </mxCell>
        <mxCell id="gc81VmoAbhz3FDv9WSGr-5" value="email" style="text;html=1;strokeColor=none;fillColor=none;align=center;verticalAlign=middle;whiteSpace=wrap;rounded=0;" vertex="1" parent="1">
          <mxGeometry x="112.5" y="370" width="60" height="30" as="geometry" />
        </mxCell>
        <mxCell id="gc81VmoAbhz3FDv9WSGr-7" value="address" style="text;html=1;strokeColor=none;fillColor=none;align=center;verticalAlign=middle;whiteSpace=wrap;rounded=0;" vertex="1" parent="1">
          <mxGeometry x="117.5" y="420" width="60" height="30" as="geometry" />
        </mxCell>
        <mxCell id="gc81VmoAbhz3FDv9WSGr-8" value="&lt;label for=&quot;name&quot; style=&quot;box-sizing: border-box; display: inline-block; max-width: 100%; margin-bottom: 5px; font-weight: bold; color: rgb(130, 130, 130); font-family: &amp;quot;Source Sans Pro&amp;quot;, Arial, sans-serif; font-size: 15px; font-style: normal; font-variant-ligatures: normal; font-variant-caps: normal; letter-spacing: normal; orphans: 2; text-align: start; text-indent: 0px; text-transform: none; widows: 2; word-spacing: 0px; -webkit-text-stroke-width: 0px; background-color: rgb(255, 255, 255); text-decoration-thickness: initial; text-decoration-style: initial; text-decoration-color: initial;&quot;&gt;Name:&lt;/label&gt;&lt;span style=&quot;color: rgb(130, 130, 130); font-family: &amp;quot;Source Sans Pro&amp;quot;, Arial, sans-serif; font-size: 15px; font-style: normal; font-variant-ligatures: normal; font-variant-caps: normal; font-weight: 400; letter-spacing: normal; orphans: 2; text-align: start; text-indent: 0px; text-transform: none; widows: 2; word-spacing: 0px; -webkit-text-stroke-width: 0px; background-color: rgb(255, 255, 255); text-decoration-thickness: initial; text-decoration-style: initial; text-decoration-color: initial; float: none; display: inline !important;&quot;&gt;&lt;span&gt;&amp;nbsp;&lt;/span&gt;&lt;/span&gt;&lt;input type=&quot;text&quot; required=&quot;&quot; style=&quot;box-sizing: border-box; color: inherit; font: inherit; margin: 0px; orphans: 2; widows: 2; -webkit-text-stroke-width: 0px; text-decoration-thickness: initial; text-decoration-style: initial; text-decoration-color: initial;&quot;&gt;&lt;span style=&quot;color: rgb(130, 130, 130); font-family: &amp;quot;Source Sans Pro&amp;quot;, Arial, sans-serif; font-size: 15px; font-style: normal; font-variant-ligatures: normal; font-variant-caps: normal; font-weight: 400; letter-spacing: normal; orphans: 2; text-align: start; text-indent: 0px; text-transform: none; widows: 2; word-spacing: 0px; -webkit-text-stroke-width: 0px; background-color: rgb(255, 255, 255); text-decoration-thickness: initial; text-decoration-style: initial; text-decoration-color: initial; float: none; display: inline !important;&quot;&gt;&lt;/span&gt;&lt;br style=&quot;box-sizing: border-box; color: rgb(130, 130, 130); font-family: &amp;quot;Source Sans Pro&amp;quot;, Arial, sans-serif; font-size: 15px; font-style: normal; font-variant-ligatures: normal; font-variant-caps: normal; font-weight: 400; letter-spacing: normal; orphans: 2; text-align: start; text-indent: 0px; text-transform: none; widows: 2; word-spacing: 0px; -webkit-text-stroke-width: 0px; background-color: rgb(255, 255, 255); text-decoration-thickness: initial; text-decoration-style: initial; text-decoration-color: initial;&quot;&gt;&lt;label for=&quot;email&quot; style=&quot;box-sizing: border-box; display: inline-block; max-width: 100%; margin-bottom: 5px; font-weight: bold; color: rgb(130, 130, 130); font-family: &amp;quot;Source Sans Pro&amp;quot;, Arial, sans-serif; font-size: 15px; font-style: normal; font-variant-ligatures: normal; font-variant-caps: normal; letter-spacing: normal; orphans: 2; text-align: start; text-indent: 0px; text-transform: none; widows: 2; word-spacing: 0px; -webkit-text-stroke-width: 0px; background-color: rgb(255, 255, 255); text-decoration-thickness: initial; text-decoration-style: initial; text-decoration-color: initial;&quot;&gt;Email:&lt;/label&gt;&lt;span style=&quot;color: rgb(130, 130, 130); font-family: &amp;quot;Source Sans Pro&amp;quot;, Arial, sans-serif; font-size: 15px; font-style: normal; font-variant-ligatures: normal; font-variant-caps: normal; font-weight: 400; letter-spacing: normal; orphans: 2; text-align: start; text-indent: 0px; text-transform: none; widows: 2; word-spacing: 0px; -webkit-text-stroke-width: 0px; background-color: rgb(255, 255, 255); text-decoration-thickness: initial; text-decoration-style: initial; text-decoration-color: initial; float: none; display: inline !important;&quot;&gt;&lt;span&gt;&amp;nbsp;&lt;/span&gt;&lt;/span&gt;&lt;input type=&quot;email&quot; id=&quot;email&quot; required=&quot;&quot; style=&quot;box-sizing: border-box; color: inherit; font: inherit; margin: 0px; orphans: 2; widows: 2; -webkit-text-stroke-width: 0px; text-decoration-thickness: initial; text-decoration-style: initial; text-decoration-color: initial;&quot;&gt;&lt;span style=&quot;color: rgb(130, 130, 130); font-family: &amp;quot;Source Sans Pro&amp;quot;, Arial, sans-serif; font-size: 15px; font-style: normal; font-variant-ligatures: normal; font-variant-caps: normal; font-weight: 400; letter-spacing: normal; orphans: 2; text-align: start; text-indent: 0px; text-transform: none; widows: 2; word-spacing: 0px; -webkit-text-stroke-width: 0px; background-color: rgb(255, 255, 255); text-decoration-thickness: initial; text-decoration-style: initial; text-decoration-color: initial; float: none; display: inline !important;&quot;&gt;&lt;/span&gt;&lt;br style=&quot;box-sizing: border-box; color: rgb(130, 130, 130); font-family: &amp;quot;Source Sans Pro&amp;quot;, Arial, sans-serif; font-size: 15px; font-style: normal; font-variant-ligatures: normal; font-variant-caps: normal; font-weight: 400; letter-spacing: normal; orphans: 2; text-align: start; text-indent: 0px; text-transform: none; widows: 2; word-spacing: 0px; -webkit-text-stroke-width: 0px; background-color: rgb(255, 255, 255); text-decoration-thickness: initial; text-decoration-style: initial; text-decoration-color: initial;&quot;&gt;&lt;label for=&quot;phone&quot; style=&quot;box-sizing: border-box; display: inline-block; max-width: 100%; margin-bottom: 5px; font-weight: bold; color: rgb(130, 130, 130); font-family: &amp;quot;Source Sans Pro&amp;quot;, Arial, sans-serif; font-size: 15px; font-style: normal; font-variant-ligatures: normal; font-variant-caps: normal; letter-spacing: normal; orphans: 2; text-align: start; text-indent: 0px; text-transform: none; widows: 2; word-spacing: 0px; -webkit-text-stroke-width: 0px; background-color: rgb(255, 255, 255); text-decoration-thickness: initial; text-decoration-style: initial; text-decoration-color: initial;&quot;&gt;Phone:&lt;/label&gt;&lt;span style=&quot;color: rgb(130, 130, 130); font-family: &amp;quot;Source Sans Pro&amp;quot;, Arial, sans-serif; font-size: 15px; font-style: normal; font-variant-ligatures: normal; font-variant-caps: normal; font-weight: 400; letter-spacing: normal; orphans: 2; text-align: start; text-indent: 0px; text-transform: none; widows: 2; word-spacing: 0px; -webkit-text-stroke-width: 0px; background-color: rgb(255, 255, 255); text-decoration-thickness: initial; text-decoration-style: initial; text-decoration-color: initial; float: none; display: inline !important;&quot;&gt;&lt;span&gt;&amp;nbsp;&lt;/span&gt;&lt;/span&gt;&lt;input type=&quot;tel&quot; id=&quot;phone&quot; required=&quot;&quot; style=&quot;box-sizing: border-box; color: inherit; font: inherit; margin: 0px; orphans: 2; widows: 2; -webkit-text-stroke-width: 0px; text-decoration-thickness: initial; text-decoration-style: initial; text-decoration-color: initial;&quot;&gt;&lt;span style=&quot;color: rgb(130, 130, 130); font-family: &amp;quot;Source Sans Pro&amp;quot;, Arial, sans-serif; font-size: 15px; font-style: normal; font-variant-ligatures: normal; font-variant-caps: normal; font-weight: 400; letter-spacing: normal; orphans: 2; text-align: start; text-indent: 0px; text-transform: none; widows: 2; word-spacing: 0px; -webkit-text-stroke-width: 0px; background-color: rgb(255, 255, 255); text-decoration-thickness: initial; text-decoration-style: initial; text-decoration-color: initial; float: none; display: inline !important;&quot;&gt;&lt;/span&gt;&lt;br style=&quot;box-sizing: border-box; color: rgb(130, 130, 130); font-family: &amp;quot;Source Sans Pro&amp;quot;, Arial, sans-serif; font-size: 15px; font-style: normal; font-variant-ligatures: normal; font-variant-caps: normal; font-weight: 400; letter-spacing: normal; orphans: 2; text-align: start; text-indent: 0px; text-transform: none; widows: 2; word-spacing: 0px; -webkit-text-stroke-width: 0px; background-color: rgb(255, 255, 255); text-decoration-thickness: initial; text-decoration-style: initial; text-decoration-color: initial;&quot;&gt;&lt;label for=&quot;password&quot; style=&quot;box-sizing: border-box; display: inline-block; max-width: 100%; margin-bottom: 5px; font-weight: bold; color: rgb(130, 130, 130); font-family: &amp;quot;Source Sans Pro&amp;quot;, Arial, sans-serif; font-size: 15px; font-style: normal; font-variant-ligatures: normal; font-variant-caps: normal; letter-spacing: normal; orphans: 2; text-align: start; text-indent: 0px; text-transform: none; widows: 2; word-spacing: 0px; -webkit-text-stroke-width: 0px; background-color: rgb(255, 255, 255); text-decoration-thickness: initial; text-decoration-style: initial; text-decoration-color: initial;&quot;&gt;Password:&lt;/label&gt;&lt;span style=&quot;color: rgb(130, 130, 130); font-family: &amp;quot;Source Sans Pro&amp;quot;, Arial, sans-serif; font-size: 15px; font-style: normal; font-variant-ligatures: normal; font-variant-caps: normal; font-weight: 400; letter-spacing: normal; orphans: 2; text-align: start; text-indent: 0px; text-transform: none; widows: 2; word-spacing: 0px; -webkit-text-stroke-width: 0px; background-color: rgb(255, 255, 255); text-decoration-thickness: initial; text-decoration-style: initial; text-decoration-color: initial; float: none; display: inline !important;&quot;&gt;&lt;span&gt;&amp;nbsp;&lt;/span&gt;&lt;/span&gt;&lt;input type=&quot;password&quot; id=&quot;password&quot; required=&quot;&quot; style=&quot;box-sizing: border-box; color: inherit; font: inherit; margin: 0px; orphans: 2; widows: 2; -webkit-text-stroke-width: 0px; text-decoration-thickness: initial; text-decoration-style: initial; text-decoration-color: initial;&quot;&gt;&lt;span style=&quot;color: rgb(130, 130, 130); font-family: &amp;quot;Source Sans Pro&amp;quot;, Arial, sans-serif; font-size: 15px; font-style: normal; font-variant-ligatures: normal; font-variant-caps: normal; font-weight: 400; letter-spacing: normal; orphans: 2; text-align: start; text-indent: 0px; text-transform: none; widows: 2; word-spacing: 0px; -webkit-text-stroke-width: 0px; background-color: rgb(255, 255, 255); text-decoration-thickness: initial; text-decoration-style: initial; text-decoration-color: initial; float: none; display: inline !important;&quot;&gt;&lt;/span&gt;&lt;br style=&quot;box-sizing: border-box; color: rgb(130, 130, 130); font-family: &amp;quot;Source Sans Pro&amp;quot;, Arial, sans-serif; font-size: 15px; font-style: normal; font-variant-ligatures: normal; font-variant-caps: normal; font-weight: 400; letter-spacing: normal; orphans: 2; text-align: start; text-indent: 0px; text-transform: none; widows: 2; word-spacing: 0px; -webkit-text-stroke-width: 0px; background-color: rgb(255, 255, 255); text-decoration-thickness: initial; text-decoration-style: initial; text-decoration-color: initial;&quot;&gt;&lt;label for=&quot;confirmPassword&quot; style=&quot;box-sizing: border-box; display: inline-block; max-width: 100%; margin-bottom: 5px; font-weight: bold; color: rgb(130, 130, 130); font-family: &amp;quot;Source Sans Pro&amp;quot;, Arial, sans-serif; font-size: 15px; font-style: normal; font-variant-ligatures: normal; font-variant-caps: normal; letter-spacing: normal; orphans: 2; text-align: start; text-indent: 0px; text-transform: none; widows: 2; word-spacing: 0px; -webkit-text-stroke-width: 0px; background-color: rgb(255, 255, 255); text-decoration-thickness: initial; text-decoration-style: initial; text-decoration-color: initial;&quot;&gt;ConfirmPassword:&lt;/label&gt;&lt;span style=&quot;color: rgb(130, 130, 130); font-family: &amp;quot;Source Sans Pro&amp;quot;, Arial, sans-serif; font-size: 15px; font-style: normal; font-variant-ligatures: normal; font-variant-caps: normal; font-weight: 400; letter-spacing: normal; orphans: 2; text-align: start; text-indent: 0px; text-transform: none; widows: 2; word-spacing: 0px; -webkit-text-stroke-width: 0px; background-color: rgb(255, 255, 255); text-decoration-thickness: initial; text-decoration-style: initial; text-decoration-color: initial; float: none; display: inline !important;&quot;&gt;&lt;span&gt;&amp;nbsp;&lt;/span&gt;&lt;/span&gt;&lt;input type=&quot;password&quot; id=&quot;confirmPassword&quot; required=&quot;&quot; style=&quot;box-sizing: border-box; color: inherit; font: inherit; margin: 0px; orphans: 2; widows: 2; -webkit-text-stroke-width: 0px; text-decoration-thickness: initial; text-decoration-style: initial; text-decoration-color: initial;&quot;&gt;" style="text;whiteSpace=wrap;html=1;" vertex="1" parent="1">
          <mxGeometry x="414" y="310" width="310" height="140" as="geometry" />
        </mxCell>
        <mxCell id="gc81VmoAbhz3FDv9WSGr-9" value="send" style="labelPosition=center;verticalLabelPosition=middle;align=center;html=1;shape=mxgraph.basic.shaded_button;dx=10;fillColor=#E6E6E6;strokeColor=none;whiteSpace=wrap;" vertex="1" parent="1">
          <mxGeometry x="510" y="440" width="100" height="60" as="geometry" />
        </mxCell>
        <mxCell id="gc81VmoAbhz3FDv9WSGr-10" value="&lt;font style=&quot;font-size: 72px;&quot;&gt;Map&lt;/font&gt;" style="rounded=0;whiteSpace=wrap;html=1;" vertex="1" parent="1">
          <mxGeometry x="70" y="500" width="710" height="210" as="geometry" />
        </mxCell>
        <mxCell id="6UmNCQjxQUrUuA0D94li-1" value="&lt;font style=&quot;font-size: 72px;&quot;&gt;Discount countdown&lt;/font&gt;" style="rounded=0;whiteSpace=wrap;html=1;" vertex="1" parent="1">
          <mxGeometry x="7" y="730" width="820" height="195" as="geometry" />
        </mxCell>
        <mxCell id="6UmNCQjxQUrUuA0D94li-2" value="Title" style="text;strokeColor=none;fillColor=none;html=1;fontSize=24;fontStyle=1;verticalAlign=middle;align=center;" vertex="1" parent="1">
          <mxGeometry x="151" y="930" width="100" height="40" as="geometry" />
        </mxCell>
        <mxCell id="6UmNCQjxQUrUuA0D94li-3" value="Title" style="text;strokeColor=none;fillColor=none;html=1;fontSize=24;fontStyle=1;verticalAlign=middle;align=center;" vertex="1" parent="1">
          <mxGeometry x="631" y="930" width="100" height="40" as="geometry" />
        </mxCell>
        <mxCell id="6UmNCQjxQUrUuA0D94li-4" value="Title" style="text;strokeColor=none;fillColor=none;html=1;fontSize=24;fontStyle=1;verticalAlign=middle;align=center;" vertex="1" parent="1">
          <mxGeometry x="461" y="930" width="100" height="40" as="geometry" />
        </mxCell>
        <mxCell id="6UmNCQjxQUrUuA0D94li-5" value="Title" style="text;strokeColor=none;fillColor=none;html=1;fontSize=24;fontStyle=1;verticalAlign=middle;align=center;" vertex="1" parent="1">
          <mxGeometry x="311" y="930" width="100" height="40" as="geometry" />
        </mxCell>
        <mxCell id="6UmNCQjxQUrUuA0D94li-6" value="about" style="text;strokeColor=none;fillColor=none;html=1;fontSize=24;fontStyle=1;verticalAlign=middle;align=center;" vertex="1" parent="1">
          <mxGeometry x="1" y="970" width="100" height="40" as="geometry" />
        </mxCell>
        <mxCell id="6UmNCQjxQUrUuA0D94li-7" value="&lt;ul&gt;&lt;li&gt;Value 1&lt;/li&gt;&lt;li&gt;Value 2&lt;/li&gt;&lt;li&gt;Value 3&lt;/li&gt;&lt;/ul&gt;" style="text;strokeColor=none;fillColor=none;html=1;whiteSpace=wrap;verticalAlign=middle;overflow=hidden;" vertex="1" parent="1">
          <mxGeometry x="151" y="960" width="100" height="80" as="geometry" />
        </mxCell>
        <mxCell id="6UmNCQjxQUrUuA0D94li-8" value="&lt;ul&gt;&lt;li&gt;Value 1&lt;/li&gt;&lt;li&gt;Value 2&lt;/li&gt;&lt;li&gt;Value 3&lt;/li&gt;&lt;/ul&gt;" style="text;strokeColor=none;fillColor=none;html=1;whiteSpace=wrap;verticalAlign=middle;overflow=hidden;" vertex="1" parent="1">
          <mxGeometry x="311" y="960" width="100" height="80" as="geometry" />
        </mxCell>
        <mxCell id="6UmNCQjxQUrUuA0D94li-9" value="&lt;ul&gt;&lt;li&gt;Value 1&lt;/li&gt;&lt;li&gt;Value 2&lt;/li&gt;&lt;li&gt;Value 3&lt;/li&gt;&lt;/ul&gt;" style="text;strokeColor=none;fillColor=none;html=1;whiteSpace=wrap;verticalAlign=middle;overflow=hidden;" vertex="1" parent="1">
          <mxGeometry x="461" y="960" width="100" height="80" as="geometry" />
        </mxCell>
        <mxCell id="6UmNCQjxQUrUuA0D94li-10" value="&lt;ul&gt;&lt;li&gt;Value 1&lt;/li&gt;&lt;li&gt;Value 2&lt;/li&gt;&lt;li&gt;Value 3&lt;/li&gt;&lt;/ul&gt;" style="text;strokeColor=none;fillColor=none;html=1;whiteSpace=wrap;verticalAlign=middle;overflow=hidden;" vertex="1" parent="1">
          <mxGeometry x="631" y="960" width="100" height="80" as="geometry" />
        </mxCell>
        <mxCell id="6UmNCQjxQUrUuA0D94li-11" value="&#xa;&lt;span style=&quot;color: rgb(130, 130, 130); font-family: &amp;quot;Source Sans Pro&amp;quot;, Arial, sans-serif; font-size: 15px; font-style: normal; font-variant-ligatures: normal; font-variant-caps: normal; font-weight: 400; letter-spacing: normal; orphans: 2; text-align: center; text-indent: 0px; text-transform: none; widows: 2; word-spacing: 0px; -webkit-text-stroke-width: 0px; background-color: rgb(255, 255, 255); text-decoration-thickness: initial; text-decoration-style: initial; text-decoration-color: initial; float: none; display: inline !important;&quot;&gt;© 2024 All rights reserved by Jojo/Zhou Jianlong/IT2&lt;/span&gt;&#xa;&#xa;" style="rounded=0;whiteSpace=wrap;html=1;" vertex="1" parent="1">
          <mxGeometry x="7" y="1110" width="820" height="40" as="geometry" />
        </mxCell>
      </root>
    </mxGraphModel>
  </diagram>
</mxfile>
